0, 0, Header, 1, 3, 384
1, 0, Start_track
1, 0, Title_t, "control track"
1, 0, Text_t, "creator: "
1, 0, Text_t, "GNU LilyPond 2.18.2           "
1, 0, Time_signature, 3, 3, 18, 8
1, 0, Tempo, 833333
1, 0, End_track
2, 0, Start_track
2, 0, Title_t, "up:"
2, 0, Control_c, 0, 7, 100
2, 0, Key_signature, 0, "minor"
2, 0, Note_on_c, 0, 76, 62
2, 96, Note_on_c, 0, 76, 0
2, 96, Note_on_c, 0, 75, 62
2, 192, Note_on_c, 0, 75, 0
2, 192, Note_on_c, 0, 76, 62
2, 288, Note_on_c, 0, 76, 0
2, 288, Note_on_c, 0, 75, 62
2, 384, Note_on_c, 0, 75, 0
2, 384, Note_on_c, 0, 76, 62
2, 480, Note_on_c, 0, 76, 0
2, 480, Note_on_c, 0, 71, 62
2, 576, Note_on_c, 0, 71, 0
2, 576, Note_on_c, 0, 74, 62
2, 672, Note_on_c, 0, 74, 0
2, 672, Note_on_c, 0, 72, 62
2, 768, Note_on_c, 0, 72, 0
2, 768, Note_on_c, 0, 69, 62
2, 960, Note_on_c, 0, 69, 0
2, 1056, Note_on_c, 0, 60, 62
2, 1152, Note_on_c, 0, 60, 0
2, 1152, Note_on_c, 0, 64, 62
2, 1248, Note_on_c, 0, 64, 0
2, 1248, Note_on_c, 0, 69, 62
2, 1344, Note_on_c, 0, 69, 0
2, 1344, Note_on_c, 0, 71, 62
2, 1536, Note_on_c, 0, 71, 0
2, 1632, Note_on_c, 0, 64, 62
2, 1728, Note_on_c, 0, 64, 0
2, 1728, Note_on_c, 0, 68, 62
2, 1824, Note_on_c, 0, 68, 0
2, 1824, Note_on_c, 0, 71, 62
2, 1920, Note_on_c, 0, 71, 0
2, 1920, Note_on_c, 0, 72, 62
2, 2112, Note_on_c, 0, 72, 0
2, 2208, Note_on_c, 0, 64, 62
2, 2304, Note_on_c, 0, 64, 0
2, 2304, Note_on_c, 0, 76, 62
2, 2400, Note_on_c, 0, 76, 0
2, 2400, Note_on_c, 0, 75, 62
2, 2496, Note_on_c, 0, 75, 0
2, 2496, Note_on_c, 0, 76, 62
2, 2592, Note_on_c, 0, 76, 0
2, 2592, Note_on_c, 0, 75, 62
2, 2688, Note_on_c, 0, 75, 0
2, 2688, Note_on_c, 0, 76, 62
2, 2784, Note_on_c, 0, 76, 0
2, 2784, Note_on_c, 0, 71, 62
2, 2880, Note_on_c, 0, 71, 0
2, 2880, Note_on_c, 0, 74, 62
2, 2976, Note_on_c, 0, 74, 0
2, 2976, Note_on_c, 0, 72, 62
2, 3072, Note_on_c, 0, 72, 0
2, 3072, Note_on_c, 0, 69, 62
2, 3264, Note_on_c, 0, 69, 0
2, 3360, Note_on_c, 0, 60, 62
2, 3456, Note_on_c, 0, 60, 0
2, 3456, Note_on_c, 0, 64, 62
2, 3552, Note_on_c, 0, 64, 0
2, 3552, Note_on_c, 0, 69, 62
2, 3648, Note_on_c, 0, 69, 0
2, 3648, Note_on_c, 0, 71, 62
2, 3840, Note_on_c, 0, 71, 0
2, 3936, Note_on_c, 0, 64, 62
2, 4032, Note_on_c, 0, 64, 0
2, 4032, Note_on_c, 0, 72, 62
2, 4128, Note_on_c, 0, 72, 0
2, 4128, Note_on_c, 0, 71, 62
2, 4224, Note_on_c, 0, 71, 0
2, 4224, Note_on_c, 0, 69, 62
2, 4608, Note_on_c, 0, 69, 0
2, 4608, Note_on_c, 0, 69, 62
2, 4800, Note_on_c, 0, 69, 0
2, 4896, Note_on_c, 0, 71, 62
2, 4992, Note_on_c, 0, 71, 0
2, 4992, Note_on_c, 0, 72, 62
2, 5088, Note_on_c, 0, 72, 0
2, 5088, Note_on_c, 0, 74, 62
2, 5184, Note_on_c, 0, 74, 0
2, 5184, Note_on_c, 0, 76, 62
2, 5472, Note_on_c, 0, 76, 0
2, 5472, Note_on_c, 0, 67, 62
2, 5568, Note_on_c, 0, 67, 0
2, 5568, Note_on_c, 0, 77, 62
2, 5664, Note_on_c, 0, 77, 0
2, 5664, Note_on_c, 0, 76, 62
2, 5760, Note_on_c, 0, 76, 0
2, 5760, Note_on_c, 0, 74, 62
2, 6048, Note_on_c, 0, 74, 0
2, 6048, Note_on_c, 0, 65, 62
2, 6144, Note_on_c, 0, 65, 0
2, 6144, Note_on_c, 0, 76, 62
2, 6240, Note_on_c, 0, 76, 0
2, 6240, Note_on_c, 0, 74, 62
2, 6336, Note_on_c, 0, 74, 0
2, 6336, Note_on_c, 0, 72, 62
2, 6624, Note_on_c, 0, 72, 0
2, 6624, Note_on_c, 0, 64, 62
2, 6720, Note_on_c, 0, 64, 0
2, 6720, Note_on_c, 0, 74, 62
2, 6816, Note_on_c, 0, 74, 0
2, 6816, Note_on_c, 0, 72, 62
2, 6912, Note_on_c, 0, 72, 0
2, 6912, Note_on_c, 0, 71, 62
2, 7104, Note_on_c, 0, 71, 0
2, 7200, Note_on_c, 0, 64, 62
2, 7296, Note_on_c, 0, 64, 0
2, 7296, Note_on_c, 0, 76, 62
2, 7392, Note_on_c, 0, 76, 0
2, 7584, Note_on_c, 0, 76, 62
2, 7680, Note_on_c, 0, 76, 0
2, 7680, Note_on_c, 0, 88, 62
2, 7776, Note_on_c, 0, 88, 0
2, 7968, Note_on_c, 0, 75, 62
2, 8064, Note_on_c, 0, 75, 0
2, 8064, Note_on_c, 0, 76, 62
2, 8256, Note_on_c, 0, 76, 0
2, 8352, Note_on_c, 0, 75, 62
2, 8448, Note_on_c, 0, 75, 0
2, 8448, Note_on_c, 0, 76, 62
2, 8544, Note_on_c, 0, 76, 0
2, 8544, Note_on_c, 0, 75, 62
2, 8640, Note_on_c, 0, 75, 0
2, 8640, Note_on_c, 0, 76, 62
2, 8736, Note_on_c, 0, 76, 0
2, 8736, Note_on_c, 0, 75, 62
2, 8832, Note_on_c, 0, 75, 0
2, 8832, Note_on_c, 0, 76, 62
2, 8928, Note_on_c, 0, 76, 0
2, 8928, Note_on_c, 0, 71, 62
2, 9024, Note_on_c, 0, 71, 0
2, 9024, Note_on_c, 0, 74, 62
2, 9120, Note_on_c, 0, 74, 0
2, 9120, Note_on_c, 0, 72, 62
2, 9216, Note_on_c, 0, 72, 0
2, 9216, Note_on_c, 0, 69, 62
2, 9408, Note_on_c, 0, 69, 0
2, 9504, Note_on_c, 0, 60, 62
2, 9600, Note_on_c, 0, 60, 0
2, 9600, Note_on_c, 0, 64, 62
2, 9696, Note_on_c, 0, 64, 0
2, 9696, Note_on_c, 0, 69, 62
2, 9792, Note_on_c, 0, 69, 0
2, 9792, Note_on_c, 0, 71, 62
2, 9984, Note_on_c, 0, 71, 0
2, 10080, Note_on_c, 0, 64, 62
2, 10176, Note_on_c, 0, 64, 0
2, 10176, Note_on_c, 0, 68, 62
2, 10272, Note_on_c, 0, 68, 0
2, 10272, Note_on_c, 0, 71, 62
2, 10368, Note_on_c, 0, 71, 0
2, 10368, Note_on_c, 0, 72, 62
2, 10560, Note_on_c, 0, 72, 0
2, 10656, Note_on_c, 0, 64, 62
2, 10752, Note_on_c, 0, 64, 0
2, 10752, Note_on_c, 0, 76, 62
2, 10848, Note_on_c, 0, 76, 0
2, 10848, Note_on_c, 0, 75, 62
2, 10944, Note_on_c, 0, 75, 0
2, 10944, Note_on_c, 0, 76, 62
2, 11040, Note_on_c, 0, 76, 0
2, 11040, Note_on_c, 0, 75, 62
2, 11136, Note_on_c, 0, 75, 0
2, 11136, Note_on_c, 0, 76, 62
2, 11232, Note_on_c, 0, 76, 0
2, 11232, Note_on_c, 0, 71, 62
2, 11328, Note_on_c, 0, 71, 0
2, 11328, Note_on_c, 0, 74, 62
2, 11424, Note_on_c, 0, 74, 0
2, 11424, Note_on_c, 0, 72, 62
2, 11520, Note_on_c, 0, 72, 0
2, 11520, Note_on_c, 0, 69, 62
2, 11712, Note_on_c, 0, 69, 0
2, 11808, Note_on_c, 0, 60, 62
2, 11904, Note_on_c, 0, 60, 0
2, 11904, Note_on_c, 0, 64, 62
2, 12000, Note_on_c, 0, 64, 0
2, 12000, Note_on_c, 0, 69, 62
2, 12096, Note_on_c, 0, 69, 0
2, 12096, Note_on_c, 0, 71, 62
2, 12288, Note_on_c, 0, 71, 0
2, 12384, Note_on_c, 0, 64, 62
2, 12480, Note_on_c, 0, 64, 0
2, 12480, Note_on_c, 0, 72, 62
2, 12576, Note_on_c, 0, 72, 0
2, 12576, Note_on_c, 0, 71, 62
2, 12672, Note_on_c, 0, 71, 0
2, 12672, Note_on_c, 0, 69, 62
2, 12864, Note_on_c, 0, 69, 0
2, 12960, Note_on_c, 0, 71, 62
2, 13056, Note_on_c, 0, 71, 0
2, 13056, Note_on_c, 0, 72, 62
2, 13152, Note_on_c, 0, 72, 0
2, 13152, Note_on_c, 0, 74, 62
2, 13248, Note_on_c, 0, 74, 0
2, 13248, Note_on_c, 0, 69, 62
2, 13440, Note_on_c, 0, 69, 0
2, 13536, Note_on_c, 0, 64, 62
2, 13536, Note_on_c, 0, 72, 62
2, 13632, Note_on_c, 0, 64, 0
2, 13632, Note_on_c, 0, 72, 0
2, 13632, Note_on_c, 0, 65, 62
2, 13632, Note_on_c, 0, 72, 62
2, 13728, Note_on_c, 0, 65, 0
2, 13728, Note_on_c, 0, 72, 0
2, 13728, Note_on_c, 0, 64, 62
2, 13728, Note_on_c, 0, 67, 62
2, 13728, Note_on_c, 0, 72, 62
2, 13780, Note_on_c, 0, 64, 0
2, 13780, Note_on_c, 0, 67, 0
2, 13780, Note_on_c, 0, 72, 0
2, 13780, Note_on_c, 0, 65, 62
2, 13801, Note_on_c, 0, 65, 0
2, 13802, Note_on_c, 0, 69, 62
2, 13823, Note_on_c, 0, 69, 0
2, 13824, Note_on_c, 0, 72, 62
2, 14208, Note_on_c, 0, 72, 0
2, 14208, Note_on_c, 0, 77, 62
2, 14352, Note_on_c, 0, 77, 0
2, 14352, Note_on_c, 0, 76, 62
2, 14400, Note_on_c, 0, 76, 0
2, 14400, Note_on_c, 0, 76, 62
2, 14592, Note_on_c, 0, 76, 0
2, 14592, Note_on_c, 0, 74, 62
2, 14784, Note_on_c, 0, 74, 0
2, 14784, Note_on_c, 0, 82, 62
2, 14928, Note_on_c, 0, 82, 0
2, 14928, Note_on_c, 0, 81, 62
2, 14976, Note_on_c, 0, 81, 0
2, 14976, Note_on_c, 0, 81, 62
2, 15072, Note_on_c, 0, 81, 0
2, 15072, Note_on_c, 0, 79, 62
2, 15168, Note_on_c, 0, 79, 0
2, 15168, Note_on_c, 0, 77, 62
2, 15264, Note_on_c, 0, 77, 0
2, 15264, Note_on_c, 0, 76, 62
2, 15360, Note_on_c, 0, 76, 0
2, 15360, Note_on_c, 0, 74, 62
2, 15456, Note_on_c, 0, 74, 0
2, 15456, Note_on_c, 0, 72, 62
2, 15552, Note_on_c, 0, 72, 0
2, 15552, Note_on_c, 0, 70, 62
2, 15744, Note_on_c, 0, 70, 0
2, 15744, Note_on_c, 0, 69, 62
2, 15925, Note_on_c, 0, 69, 0
2, 15925, Note_on_c, 0, 70, 62
2, 15935, Note_on_c, 0, 70, 0
2, 15936, Note_on_c, 0, 69, 62
2, 15984, Note_on_c, 0, 69, 0
2, 15984, Note_on_c, 0, 67, 62
2, 16032, Note_on_c, 0, 67, 0
2, 16032, Note_on_c, 0, 69, 62
2, 16080, Note_on_c, 0, 69, 0
2, 16080, Note_on_c, 0, 70, 62
2, 16128, Note_on_c, 0, 70, 0
2, 16128, Note_on_c, 0, 72, 62
2, 16512, Note_on_c, 0, 72, 0
2, 16512, Note_on_c, 0, 74, 62
2, 16608, Note_on_c, 0, 74, 0
2, 16608, Note_on_c, 0, 75, 62
2, 16704, Note_on_c, 0, 75, 0
2, 16704, Note_on_c, 0, 76, 62
2, 16992, Note_on_c, 0, 76, 0
2, 16992, Note_on_c, 0, 76, 62
2, 17088, Note_on_c, 0, 76, 0
2, 17088, Note_on_c, 0, 77, 62
2, 17184, Note_on_c, 0, 77, 0
2, 17184, Note_on_c, 0, 69, 62
2, 17280, Note_on_c, 0, 69, 0
2, 17280, Note_on_c, 0, 72, 62
2, 17664, Note_on_c, 0, 72, 0
2, 17664, Note_on_c, 0, 74, 62
2, 17808, Note_on_c, 0, 74, 0
2, 17808, Note_on_c, 0, 71, 62
2, 17856, Note_on_c, 0, 71, 0
2, 17856, Note_on_c, 0, 72, 62
2, 17904, Note_on_c, 0, 72, 0
2, 17904, Note_on_c, 0, 79, 62
2, 17952, Note_on_c, 0, 79, 0
2, 17952, Note_on_c, 0, 67, 62
2, 18000, Note_on_c, 0, 67, 0
2, 18000, Note_on_c, 0, 79, 62
2, 18048, Note_on_c, 0, 79, 0
2, 18048, Note_on_c, 0, 69, 62
2, 18096, Note_on_c, 0, 69, 0
2, 18096, Note_on_c, 0, 79, 62
2, 18144, Note_on_c, 0, 79, 0
2, 18144, Note_on_c, 0, 71, 62
2, 18192, Note_on_c, 0, 71, 0
2, 18192, Note_on_c, 0, 79, 62
2, 18240, Note_on_c, 0, 79, 0
2, 18240, Note_on_c, 0, 72, 62
2, 18288, Note_on_c, 0, 72, 0
2, 18288, Note_on_c, 0, 79, 62
2, 18336, Note_on_c, 0, 79, 0
2, 18336, Note_on_c, 0, 74, 62
2, 18384, Note_on_c, 0, 74, 0
2, 18384, Note_on_c, 0, 79, 62
2, 18432, Note_on_c, 0, 79, 0
2, 18432, Note_on_c, 0, 76, 62
2, 18480, Note_on_c, 0, 76, 0
2, 18480, Note_on_c, 0, 79, 62
2, 18528, Note_on_c, 0, 79, 0
2, 18528, Note_on_c, 0, 84, 62
2, 18576, Note_on_c, 0, 84, 0
2, 18576, Note_on_c, 0, 83, 62
2, 18624, Note_on_c, 0, 83, 0
2, 18624, Note_on_c, 0, 81, 62
2, 18672, Note_on_c, 0, 81, 0
2, 18672, Note_on_c, 0, 79, 62
2, 18720, Note_on_c, 0, 79, 0
2, 18720, Note_on_c, 0, 77, 62
2, 18768, Note_on_c, 0, 77, 0
2, 18768, Note_on_c, 0, 76, 62
2, 18816, Note_on_c, 0, 76, 0
2, 18816, Note_on_c, 0, 74, 62
2, 18864, Note_on_c, 0, 74, 0
2, 18864, Note_on_c, 0, 79, 62
2, 18912, Note_on_c, 0, 79, 0
2, 18912, Note_on_c, 0, 77, 62
2, 18960, Note_on_c, 0, 77, 0
2, 18960, Note_on_c, 0, 74, 62
2, 19008, Note_on_c, 0, 74, 0
2, 19008, Note_on_c, 0, 72, 62
2, 19056, Note_on_c, 0, 72, 0
2, 19056, Note_on_c, 0, 79, 62
2, 19104, Note_on_c, 0, 79, 0
2, 19104, Note_on_c, 0, 67, 62
2, 19152, Note_on_c, 0, 67, 0
2, 19152, Note_on_c, 0, 79, 62
2, 19200, Note_on_c, 0, 79, 0
2, 19200, Note_on_c, 0, 69, 62
2, 19248, Note_on_c, 0, 69, 0
2, 19248, Note_on_c, 0, 79, 62
2, 19296, Note_on_c, 0, 79, 0
2, 19296, Note_on_c, 0, 71, 62
2, 19344, Note_on_c, 0, 71, 0
2, 19344, Note_on_c, 0, 79, 62
2, 19392, Note_on_c, 0, 79, 0
2, 19392, Note_on_c, 0, 72, 62
2, 19440, Note_on_c, 0, 72, 0
2, 19440, Note_on_c, 0, 79, 62
2, 19488, Note_on_c, 0, 79, 0
2, 19488, Note_on_c, 0, 74, 62
2, 19536, Note_on_c, 0, 74, 0
2, 19536, Note_on_c, 0, 79, 62
2, 19584, Note_on_c, 0, 79, 0
2, 19584, Note_on_c, 0, 76, 62
2, 19632, Note_on_c, 0, 76, 0
2, 19632, Note_on_c, 0, 79, 62
2, 19680, Note_on_c, 0, 79, 0
2, 19680, Note_on_c, 0, 84, 62
2, 19728, Note_on_c, 0, 84, 0
2, 19728, Note_on_c, 0, 83, 62
2, 19776, Note_on_c, 0, 83, 0
2, 19776, Note_on_c, 0, 81, 62
2, 19824, Note_on_c, 0, 81, 0
2, 19824, Note_on_c, 0, 79, 62
2, 19872, Note_on_c, 0, 79, 0
2, 19872, Note_on_c, 0, 77, 62
2, 19920, Note_on_c, 0, 77, 0
2, 19920, Note_on_c, 0, 76, 62
2, 19968, Note_on_c, 0, 76, 0
2, 19968, Note_on_c, 0, 74, 62
2, 20016, Note_on_c, 0, 74, 0
2, 20016, Note_on_c, 0, 79, 62
2, 20064, Note_on_c, 0, 79, 0
2, 20064, Note_on_c, 0, 77, 62
2, 20112, Note_on_c, 0, 77, 0
2, 20112, Note_on_c, 0, 74, 62
2, 20160, Note_on_c, 0, 74, 0
2, 20160, Note_on_c, 0, 76, 62
2, 20208, Note_on_c, 0, 76, 0
2, 20208, Note_on_c, 0, 77, 62
2, 20256, Note_on_c, 0, 77, 0
2, 20256, Note_on_c, 0, 76, 62
2, 20304, Note_on_c, 0, 76, 0
2, 20304, Note_on_c, 0, 75, 62
2, 20352, Note_on_c, 0, 75, 0
2, 20352, Note_on_c, 0, 76, 62
2, 20400, Note_on_c, 0, 76, 0
2, 20400, Note_on_c, 0, 71, 62
2, 20448, Note_on_c, 0, 71, 0
2, 20448, Note_on_c, 0, 76, 62
2, 20496, Note_on_c, 0, 76, 0
2, 20496, Note_on_c, 0, 75, 62
2, 20544, Note_on_c, 0, 75, 0
2, 20544, Note_on_c, 0, 76, 62
2, 20592, Note_on_c, 0, 76, 0
2, 20592, Note_on_c, 0, 71, 62
2, 20640, Note_on_c, 0, 71, 0
2, 20640, Note_on_c, 0, 76, 62
2, 20688, Note_on_c, 0, 76, 0
2, 20688, Note_on_c, 0, 75, 62
2, 20736, Note_on_c, 0, 75, 0
2, 20736, Note_on_c, 0, 76, 62
2, 21024, Note_on_c, 0, 76, 0
2, 21024, Note_on_c, 0, 71, 62
2, 21120, Note_on_c, 0, 71, 0
2, 21120, Note_on_c, 0, 76, 62
2, 21216, Note_on_c, 0, 76, 0
2, 21216, Note_on_c, 0, 75, 62
2, 21312, Note_on_c, 0, 75, 0
2, 21312, Note_on_c, 0, 76, 62
2, 21600, Note_on_c, 0, 76, 0
2, 21600, Note_on_c, 0, 71, 62
2, 21696, Note_on_c, 0, 71, 0
2, 21696, Note_on_c, 0, 76, 62
2, 21792, Note_on_c, 0, 76, 0
2, 21792, Note_on_c, 0, 75, 62
2, 21888, Note_on_c, 0, 75, 0
2, 21888, Note_on_c, 0, 76, 62
2, 21984, Note_on_c, 0, 76, 0
2, 21984, Note_on_c, 0, 75, 62
2, 22080, Note_on_c, 0, 75, 0
2, 22080, Note_on_c, 0, 76, 62
2, 22176, Note_on_c, 0, 76, 0
2, 22176, Note_on_c, 0, 75, 62
2, 22272, Note_on_c, 0, 75, 0
2, 22272, Note_on_c, 0, 76, 62
2, 22368, Note_on_c, 0, 76, 0
2, 22368, Note_on_c, 0, 75, 62
2, 22464, Note_on_c, 0, 75, 0
2, 22464, Note_on_c, 0, 76, 62
2, 22560, Note_on_c, 0, 76, 0
2, 22560, Note_on_c, 0, 75, 62
2, 22656, Note_on_c, 0, 75, 0
2, 22656, Note_on_c, 0, 76, 62
2, 22752, Note_on_c, 0, 76, 0
2, 22752, Note_on_c, 0, 71, 62
2, 22848, Note_on_c, 0, 71, 0
2, 22848, Note_on_c, 0, 74, 62
2, 22944, Note_on_c, 0, 74, 0
2, 22944, Note_on_c, 0, 72, 62
2, 23040, Note_on_c, 0, 72, 0
2, 23040, Note_on_c, 0, 69, 62
2, 23232, Note_on_c, 0, 69, 0
2, 23328, Note_on_c, 0, 60, 62
2, 23424, Note_on_c, 0, 60, 0
2, 23424, Note_on_c, 0, 64, 62
2, 23520, Note_on_c, 0, 64, 0
2, 23520, Note_on_c, 0, 69, 62
2, 23616, Note_on_c, 0, 69, 0
2, 23616, Note_on_c, 0, 71, 62
2, 23808, Note_on_c, 0, 71, 0
2, 23904, Note_on_c, 0, 64, 62
2, 24000, Note_on_c, 0, 64, 0
2, 24000, Note_on_c, 0, 68, 62
2, 24096, Note_on_c, 0, 68, 0
2, 24096, Note_on_c, 0, 71, 62
2, 24192, Note_on_c, 0, 71, 0
2, 24192, Note_on_c, 0, 72, 62
2, 24384, Note_on_c, 0, 72, 0
2, 24480, Note_on_c, 0, 64, 62
2, 24576, Note_on_c, 0, 64, 0
2, 24576, Note_on_c, 0, 76, 62
2, 24672, Note_on_c, 0, 76, 0
2, 24672, Note_on_c, 0, 75, 62
2, 24768, Note_on_c, 0, 75, 0
2, 24768, Note_on_c, 0, 76, 62
2, 24864, Note_on_c, 0, 76, 0
2, 24864, Note_on_c, 0, 75, 62
2, 24960, Note_on_c, 0, 75, 0
2, 24960, Note_on_c, 0, 76, 62
2, 25056, Note_on_c, 0, 76, 0
2, 25056, Note_on_c, 0, 71, 62
2, 25152, Note_on_c, 0, 71, 0
2, 25152, Note_on_c, 0, 74, 62
2, 25248, Note_on_c, 0, 74, 0
2, 25248, Note_on_c, 0, 72, 62
2, 25344, Note_on_c, 0, 72, 0
2, 25344, Note_on_c, 0, 69, 62
2, 25536, Note_on_c, 0, 69, 0
2, 25632, Note_on_c, 0, 60, 62
2, 25728, Note_on_c, 0, 60, 0
2, 25728, Note_on_c, 0, 64, 62
2, 25824, Note_on_c, 0, 64, 0
2, 25824, Note_on_c, 0, 69, 62
2, 25920, Note_on_c, 0, 69, 0
2, 25920, Note_on_c, 0, 71, 62
2, 26112, Note_on_c, 0, 71, 0
2, 26208, Note_on_c, 0, 64, 62
2, 26304, Note_on_c, 0, 64, 0
2, 26304, Note_on_c, 0, 72, 62
2, 26400, Note_on_c, 0, 72, 0
2, 26400, Note_on_c, 0, 71, 62
2, 26496, Note_on_c, 0, 71, 0
2, 26496, Note_on_c, 0, 69, 62
2, 26688, Note_on_c, 0, 69, 0
2, 26784, Note_on_c, 0, 71, 62
2, 26880, Note_on_c, 0, 71, 0
2, 26880, Note_on_c, 0, 72, 62
2, 26976, Note_on_c, 0, 72, 0
2, 26976, Note_on_c, 0, 74, 62
2, 27072, Note_on_c, 0, 74, 0
2, 27072, Note_on_c, 0, 76, 62
2, 27360, Note_on_c, 0, 76, 0
2, 27360, Note_on_c, 0, 67, 62
2, 27456, Note_on_c, 0, 67, 0
2, 27456, Note_on_c, 0, 77, 62
2, 27552, Note_on_c, 0, 77, 0
2, 27552, Note_on_c, 0, 76, 62
2, 27648, Note_on_c, 0, 76, 0
2, 27648, Note_on_c, 0, 74, 62
2, 27936, Note_on_c, 0, 74, 0
2, 27936, Note_on_c, 0, 65, 62
2, 28032, Note_on_c, 0, 65, 0
2, 28032, Note_on_c, 0, 76, 62
2, 28128, Note_on_c, 0, 76, 0
2, 28128, Note_on_c, 0, 74, 62
2, 28224, Note_on_c, 0, 74, 0
2, 28224, Note_on_c, 0, 72, 62
2, 28512, Note_on_c, 0, 72, 0
2, 28512, Note_on_c, 0, 64, 62
2, 28608, Note_on_c, 0, 64, 0
2, 28608, Note_on_c, 0, 74, 62
2, 28704, Note_on_c, 0, 74, 0
2, 28704, Note_on_c, 0, 72, 62
2, 28800, Note_on_c, 0, 72, 0
2, 28800, Note_on_c, 0, 71, 62
2, 28992, Note_on_c, 0, 71, 0
2, 29088, Note_on_c, 0, 64, 62
2, 29184, Note_on_c, 0, 64, 0
2, 29184, Note_on_c, 0, 76, 62
2, 29280, Note_on_c, 0, 76, 0
2, 29472, Note_on_c, 0, 76, 62
2, 29568, Note_on_c, 0, 76, 0
2, 29568, Note_on_c, 0, 88, 62
2, 29664, Note_on_c, 0, 88, 0
2, 29856, Note_on_c, 0, 75, 62
2, 29952, Note_on_c, 0, 75, 0
2, 29952, Note_on_c, 0, 76, 62
2, 30048, Note_on_c, 0, 76, 0
2, 30240, Note_on_c, 0, 75, 62
2, 30336, Note_on_c, 0, 75, 0
2, 30336, Note_on_c, 0, 76, 62
2, 30432, Note_on_c, 0, 76, 0
2, 30432, Note_on_c, 0, 75, 62
2, 30528, Note_on_c, 0, 75, 0
2, 30528, Note_on_c, 0, 76, 62
2, 30624, Note_on_c, 0, 76, 0
2, 30624, Note_on_c, 0, 75, 62
2, 30720, Note_on_c, 0, 75, 0
2, 30720, Note_on_c, 0, 76, 62
2, 30816, Note_on_c, 0, 76, 0
2, 30816, Note_on_c, 0, 71, 62
2, 30912, Note_on_c, 0, 71, 0
2, 30912, Note_on_c, 0, 74, 62
2, 31008, Note_on_c, 0, 74, 0
2, 31008, Note_on_c, 0, 72, 62
2, 31104, Note_on_c, 0, 72, 0
2, 31104, Note_on_c, 0, 69, 62
2, 31296, Note_on_c, 0, 69, 0
2, 31392, Note_on_c, 0, 60, 62
2, 31488, Note_on_c, 0, 60, 0
2, 31488, Note_on_c, 0, 64, 62
2, 31584, Note_on_c, 0, 64, 0
2, 31584, Note_on_c, 0, 69, 62
2, 31680, Note_on_c, 0, 69, 0
2, 31680, Note_on_c, 0, 71, 62
2, 31872, Note_on_c, 0, 71, 0
2, 31968, Note_on_c, 0, 64, 62
2, 32064, Note_on_c, 0, 64, 0
2, 32064, Note_on_c, 0, 68, 62
2, 32160, Note_on_c, 0, 68, 0
2, 32160, Note_on_c, 0, 71, 62
2, 32256, Note_on_c, 0, 71, 0
2, 32256, Note_on_c, 0, 72, 62
2, 32448, Note_on_c, 0, 72, 0
2, 32544, Note_on_c, 0, 64, 62
2, 32640, Note_on_c, 0, 64, 0
2, 32640, Note_on_c, 0, 76, 62
2, 32736, Note_on_c, 0, 76, 0
2, 32736, Note_on_c, 0, 75, 62
2, 32832, Note_on_c, 0, 75, 0
2, 32832, Note_on_c, 0, 76, 62
2, 32928, Note_on_c, 0, 76, 0
2, 32928, Note_on_c, 0, 75, 62
2, 33024, Note_on_c, 0, 75, 0
2, 33024, Note_on_c, 0, 76, 62
2, 33120, Note_on_c, 0, 76, 0
2, 33120, Note_on_c, 0, 71, 62
2, 33216, Note_on_c, 0, 71, 0
2, 33216, Note_on_c, 0, 74, 62
2, 33312, Note_on_c, 0, 74, 0
2, 33312, Note_on_c, 0, 72, 62
2, 33408, Note_on_c, 0, 72, 0
2, 33408, Note_on_c, 0, 69, 62
2, 33600, Note_on_c, 0, 69, 0
2, 33696, Note_on_c, 0, 60, 62
2, 33792, Note_on_c, 0, 60, 0
2, 33792, Note_on_c, 0, 64, 62
2, 33888, Note_on_c, 0, 64, 0
2, 33888, Note_on_c, 0, 69, 62
2, 33984, Note_on_c, 0, 69, 0
2, 33984, Note_on_c, 0, 71, 62
2, 34176, Note_on_c, 0, 71, 0
2, 34272, Note_on_c, 0, 64, 62
2, 34368, Note_on_c, 0, 64, 0
2, 34368, Note_on_c, 0, 72, 62
2, 34464, Note_on_c, 0, 72, 0
2, 34464, Note_on_c, 0, 71, 62
2, 34560, Note_on_c, 0, 71, 0
2, 34560, Note_on_c, 0, 69, 62
2, 34752, Note_on_c, 0, 69, 0
2, 35136, Note_on_c, 0, 64, 62
2, 35136, Note_on_c, 0, 67, 62
2, 35136, Note_on_c, 0, 70, 62
2, 35136, Note_on_c, 0, 73, 62
2, 35712, Note_on_c, 0, 64, 0
2, 35712, Note_on_c, 0, 67, 0
2, 35712, Note_on_c, 0, 73, 0
2, 35712, Note_on_c, 0, 70, 0
2, 35712, Note_on_c, 0, 74, 62
2, 35712, Note_on_c, 0, 69, 62
2, 35712, Note_on_c, 0, 65, 62
2, 36096, Note_on_c, 0, 74, 0
2, 36096, Note_on_c, 0, 69, 0
2, 36096, Note_on_c, 0, 65, 0
2, 36096, Note_on_c, 0, 73, 62
2, 36096, Note_on_c, 0, 76, 62
2, 36192, Note_on_c, 0, 73, 0
2, 36192, Note_on_c, 0, 76, 0
2, 36192, Note_on_c, 0, 74, 62
2, 36192, Note_on_c, 0, 77, 62
2, 36288, Note_on_c, 0, 74, 0
2, 36288, Note_on_c, 0, 77, 0
2, 36288, Note_on_c, 0, 68, 62
2, 36288, Note_on_c, 0, 74, 62
2, 36288, Note_on_c, 0, 77, 62
2, 36672, Note_on_c, 0, 68, 0
2, 36672, Note_on_c, 0, 74, 0
2, 36672, Note_on_c, 0, 77, 0
2, 36672, Note_on_c, 0, 68, 62
2, 36672, Note_on_c, 0, 74, 62
2, 36672, Note_on_c, 0, 77, 62
2, 36864, Note_on_c, 0, 68, 0
2, 36864, Note_on_c, 0, 74, 0
2, 36864, Note_on_c, 0, 77, 0
2, 36864, Note_on_c, 0, 69, 62
2, 36864, Note_on_c, 0, 72, 62
2, 36864, Note_on_c, 0, 76, 62
2, 37440, Note_on_c, 0, 69, 0
2, 37440, Note_on_c, 0, 72, 0
2, 37440, Note_on_c, 0, 76, 0
2, 37440, Note_on_c, 0, 74, 62
2, 37440, Note_on_c, 0, 65, 62
2, 37824, Note_on_c, 0, 74, 0
2, 37824, Note_on_c, 0, 65, 0
2, 37824, Note_on_c, 0, 64, 62
2, 37824, Note_on_c, 0, 72, 62
2, 37920, Note_on_c, 0, 64, 0
2, 37920, Note_on_c, 0, 72, 0
2, 37920, Note_on_c, 0, 62, 62
2, 37920, Note_on_c, 0, 71, 62
2, 38016, Note_on_c, 0, 62, 0
2, 38016, Note_on_c, 0, 71, 0
2, 38016, Note_on_c, 0, 60, 62
2, 38016, Note_on_c, 0, 66, 62
2, 38016, Note_on_c, 0, 69, 62
2, 38400, Note_on_c, 0, 60, 0
2, 38400, Note_on_c, 0, 66, 0
2, 38400, Note_on_c, 0, 69, 0
2, 38400, Note_on_c, 0, 69, 62
2, 38400, Note_on_c, 0, 60, 62
2, 38592, Note_on_c, 0, 69, 0
2, 38592, Note_on_c, 0, 60, 0
2, 38592, Note_on_c, 0, 60, 62
2, 38592, Note_on_c, 0, 69, 62
2, 38784, Note_on_c, 0, 60, 0
2, 38784, Note_on_c, 0, 69, 0
2, 38784, Note_on_c, 0, 64, 62
2, 38784, Note_on_c, 0, 72, 62
2, 38976, Note_on_c, 0, 64, 0
2, 38976, Note_on_c, 0, 72, 0
2, 38976, Note_on_c, 0, 62, 62
2, 38976, Note_on_c, 0, 71, 62
2, 39168, Note_on_c, 0, 62, 0
2, 39168, Note_on_c, 0, 71, 0
2, 39168, Note_on_c, 0, 69, 62
2, 39168, Note_on_c, 0, 60, 62
2, 39744, Note_on_c, 0, 69, 0
2, 39744, Note_on_c, 0, 60, 0
2, 39744, Note_on_c, 0, 64, 62
2, 39744, Note_on_c, 0, 67, 62
2, 39744, Note_on_c, 0, 70, 62
2, 39744, Note_on_c, 0, 73, 62
2, 40320, Note_on_c, 0, 64, 0
2, 40320, Note_on_c, 0, 67, 0
2, 40320, Note_on_c, 0, 73, 0
2, 40320, Note_on_c, 0, 70, 0
2, 40320, Note_on_c, 0, 65, 62
2, 40320, Note_on_c, 0, 69, 62
2, 40320, Note_on_c, 0, 74, 62
2, 40704, Note_on_c, 0, 65, 0
2, 40704, Note_on_c, 0, 69, 0
2, 40704, Note_on_c, 0, 74, 0
2, 40704, Note_on_c, 0, 73, 62
2, 40704, Note_on_c, 0, 76, 62
2, 40800, Note_on_c, 0, 73, 0
2, 40800, Note_on_c, 0, 76, 0
2, 40800, Note_on_c, 0, 74, 62
2, 40800, Note_on_c, 0, 77, 62
2, 40896, Note_on_c, 0, 74, 0
2, 40896, Note_on_c, 0, 77, 0
2, 40896, Note_on_c, 0, 74, 62
2, 40896, Note_on_c, 0, 77, 62
2, 41280, Note_on_c, 0, 74, 0
2, 41280, Note_on_c, 0, 77, 0
2, 41280, Note_on_c, 0, 77, 62
2, 41280, Note_on_c, 0, 74, 62
2, 41472, Note_on_c, 0, 77, 0
2, 41472, Note_on_c, 0, 74, 0
2, 41472, Note_on_c, 0, 74, 62
2, 41472, Note_on_c, 0, 77, 62
2, 42048, Note_on_c, 0, 74, 0
2, 42048, Note_on_c, 0, 77, 0
2, 42048, Note_on_c, 0, 67, 62
2, 42048, Note_on_c, 0, 75, 62
2, 42432, Note_on_c, 0, 67, 0
2, 42432, Note_on_c, 0, 75, 0
2, 42432, Note_on_c, 0, 65, 62
2, 42432, Note_on_c, 0, 74, 62
2, 42528, Note_on_c, 0, 65, 0
2, 42528, Note_on_c, 0, 74, 0
2, 42528, Note_on_c, 0, 63, 62
2, 42528, Note_on_c, 0, 72, 62
2, 42624, Note_on_c, 0, 63, 0
2, 42624, Note_on_c, 0, 72, 0
2, 42624, Note_on_c, 0, 62, 62
2, 42624, Note_on_c, 0, 65, 62
2, 42624, Note_on_c, 0, 70, 62
2, 43008, Note_on_c, 0, 62, 0
2, 43008, Note_on_c, 0, 65, 0
2, 43008, Note_on_c, 0, 70, 0
2, 43008, Note_on_c, 0, 62, 62
2, 43008, Note_on_c, 0, 65, 62
2, 43008, Note_on_c, 0, 69, 62
2, 43200, Note_on_c, 0, 62, 0
2, 43200, Note_on_c, 0, 65, 0
2, 43200, Note_on_c, 0, 69, 0
2, 43200, Note_on_c, 0, 68, 62
2, 43200, Note_on_c, 0, 65, 62
2, 43200, Note_on_c, 0, 62, 62
2, 43584, Note_on_c, 0, 68, 0
2, 43584, Note_on_c, 0, 65, 0
2, 43584, Note_on_c, 0, 62, 0
2, 43584, Note_on_c, 0, 62, 62
2, 43584, Note_on_c, 0, 65, 62
2, 43584, Note_on_c, 0, 68, 62
2, 43776, Note_on_c, 0, 62, 0
2, 43776, Note_on_c, 0, 65, 0
2, 43776, Note_on_c, 0, 68, 0
2, 43776, Note_on_c, 0, 60, 62
2, 43776, Note_on_c, 0, 64, 62
2, 43776, Note_on_c, 0, 69, 62
2, 44160, Note_on_c, 0, 60, 0
2, 44160, Note_on_c, 0, 64, 0
2, 44160, Note_on_c, 0, 69, 0
2, 44352, Note_on_c, 0, 64, 62
2, 44352, Note_on_c, 0, 71, 62
2, 44544, Note_on_c, 0, 64, 0
2, 44544, Note_on_c, 0, 71, 0
2, 44928, Control_c, 0, 7, 100
2, 44928, Note_on_c, 0, 57, 62
2, 44992, Note_on_c, 0, 57, 0
2, 44992, Note_on_c, 0, 60, 62
2, 45056, Note_on_c, 0, 60, 0
2, 45056, Note_on_c, 0, 64, 62
2, 45120, Note_on_c, 0, 64, 0
2, 45120, Note_on_c, 0, 69, 62
2, 45184, Note_on_c, 0, 69, 0
2, 45184, Note_on_c, 0, 72, 62
2, 45248, Note_on_c, 0, 72, 0
2, 45248, Note_on_c, 0, 76, 62
2, 45312, Note_on_c, 0, 76, 0
2, 45312, Note_on_c, 0, 74, 62
2, 45376, Note_on_c, 0, 74, 0
2, 45376, Note_on_c, 0, 72, 62
2, 45440, Note_on_c, 0, 72, 0
2, 45440, Note_on_c, 0, 71, 62
2, 45504, Note_on_c, 0, 71, 0
2, 45504, Note_on_c, 0, 69, 62
2, 45568, Note_on_c, 0, 69, 0
2, 45568, Note_on_c, 0, 72, 62
2, 45632, Note_on_c, 0, 72, 0
2, 45632, Note_on_c, 0, 76, 62
2, 45696, Note_on_c, 0, 76, 0
2, 45696, Note_on_c, 0, 81, 62
2, 45760, Note_on_c, 0, 81, 0
2, 45760, Note_on_c, 0, 84, 62
2, 45824, Note_on_c, 0, 84, 0
2, 45824, Note_on_c, 0, 88, 62
2, 45888, Note_on_c, 0, 88, 0
2, 45888, Note_on_c, 0, 86, 62
2, 45952, Note_on_c, 0, 86, 0
2, 45952, Note_on_c, 0, 84, 62
2, 46016, Note_on_c, 0, 84, 0
2, 46016, Note_on_c, 0, 83, 62
2, 46080, Note_on_c, 0, 83, 0
2, 46080, Note_on_c, 0, 81, 62
2, 46144, Note_on_c, 0, 81, 0
2, 46144, Note_on_c, 0, 84, 62
2, 46208, Note_on_c, 0, 84, 0
2, 46208, Note_on_c, 0, 88, 62
2, 46272, Note_on_c, 0, 88, 0
2, 46272, Note_on_c, 0, 93, 62
2, 46336, Note_on_c, 0, 93, 0
2, 46336, Note_on_c, 0, 96, 62
2, 46400, Note_on_c, 0, 96, 0
2, 46400, Note_on_c, 0, 100, 62
2, 46464, Note_on_c, 0, 100, 0
2, 46464, Note_on_c, 0, 98, 62
2, 46528, Note_on_c, 0, 98, 0
2, 46528, Note_on_c, 0, 96, 62
2, 46592, Note_on_c, 0, 96, 0
2, 46592, Note_on_c, 0, 95, 62
2, 46656, Note_on_c, 0, 95, 0
2, 46656, Note_on_c, 0, 94, 62
2, 46720, Note_on_c, 0, 94, 0
2, 46720, Note_on_c, 0, 93, 62
2, 46784, Note_on_c, 0, 93, 0
2, 46784, Note_on_c, 0, 92, 62
2, 46848, Note_on_c, 0, 92, 0
2, 46848, Note_on_c, 0, 91, 62
2, 46912, Note_on_c, 0, 91, 0
2, 46912, Note_on_c, 0, 90, 62
2, 46976, Note_on_c, 0, 90, 0
2, 46976, Note_on_c, 0, 89, 62
2, 47040, Note_on_c, 0, 89, 0
2, 47040, Note_on_c, 0, 88, 62
2, 47104, Note_on_c, 0, 88, 0
2, 47104, Note_on_c, 0, 87, 62
2, 47168, Note_on_c, 0, 87, 0
2, 47168, Note_on_c, 0, 86, 62
2, 47232, Note_on_c, 0, 86, 0
2, 47232, Note_on_c, 0, 85, 62
2, 47296, Note_on_c, 0, 85, 0
2, 47296, Note_on_c, 0, 84, 62
2, 47360, Note_on_c, 0, 84, 0
2, 47360, Note_on_c, 0, 83, 62
2, 47424, Note_on_c, 0, 83, 0
2, 47424, Note_on_c, 0, 82, 62
2, 47488, Note_on_c, 0, 82, 0
2, 47488, Note_on_c, 0, 81, 62
2, 47552, Note_on_c, 0, 81, 0
2, 47552, Note_on_c, 0, 80, 62
2, 47616, Note_on_c, 0, 80, 0
2, 47616, Note_on_c, 0, 79, 62
2, 47680, Note_on_c, 0, 79, 0
2, 47680, Note_on_c, 0, 78, 62
2, 47744, Note_on_c, 0, 78, 0
2, 47744, Note_on_c, 0, 77, 62
2, 47808, Note_on_c, 0, 77, 0
2, 47808, Note_on_c, 0, 76, 62
2, 47904, Note_on_c, 0, 76, 0
2, 47904, Note_on_c, 0, 75, 62
2, 48000, Note_on_c, 0, 75, 0
2, 48000, Note_on_c, 0, 76, 62
2, 48096, Note_on_c, 0, 76, 0
2, 48096, Note_on_c, 0, 71, 62
2, 48192, Note_on_c, 0, 71, 0
2, 48192, Note_on_c, 0, 74, 62
2, 48288, Note_on_c, 0, 74, 0
2, 48288, Note_on_c, 0, 72, 62
2, 48384, Note_on_c, 0, 72, 0
2, 48384, Note_on_c, 0, 69, 62
2, 48576, Note_on_c, 0, 69, 0
2, 48672, Note_on_c, 0, 60, 62
2, 48768, Note_on_c, 0, 60, 0
2, 48768, Note_on_c, 0, 64, 62
2, 48864, Note_on_c, 0, 64, 0
2, 48864, Note_on_c, 0, 69, 62
2, 48960, Note_on_c, 0, 69, 0
2, 48960, Note_on_c, 0, 71, 62
2, 49152, Note_on_c, 0, 71, 0
2, 49248, Note_on_c, 0, 64, 62
2, 49344, Note_on_c, 0, 64, 0
2, 49344, Note_on_c, 0, 68, 62
2, 49440, Note_on_c, 0, 68, 0
2, 49440, Note_on_c, 0, 71, 62
2, 49536, Note_on_c, 0, 71, 0
2, 49536, Note_on_c, 0, 72, 62
2, 49728, Note_on_c, 0, 72, 0
2, 49824, Note_on_c, 0, 64, 62
2, 49920, Note_on_c, 0, 64, 0
2, 49920, Note_on_c, 0, 76, 62
2, 50016, Note_on_c, 0, 76, 0
2, 50016, Note_on_c, 0, 75, 62
2, 50112, Note_on_c, 0, 75, 0
2, 50112, Note_on_c, 0, 76, 62
2, 50208, Note_on_c, 0, 76, 0
2, 50208, Note_on_c, 0, 75, 62
2, 50304, Note_on_c, 0, 75, 0
2, 50304, Note_on_c, 0, 76, 62
2, 50400, Note_on_c, 0, 76, 0
2, 50400, Note_on_c, 0, 71, 62
2, 50496, Note_on_c, 0, 71, 0
2, 50496, Note_on_c, 0, 74, 62
2, 50592, Note_on_c, 0, 74, 0
2, 50592, Note_on_c, 0, 72, 62
2, 50688, Note_on_c, 0, 72, 0
2, 50688, Note_on_c, 0, 69, 62
2, 50880, Note_on_c, 0, 69, 0
2, 50976, Note_on_c, 0, 60, 62
2, 51072, Note_on_c, 0, 60, 0
2, 51072, Note_on_c, 0, 64, 62
2, 51168, Note_on_c, 0, 64, 0
2, 51168, Note_on_c, 0, 69, 62
2, 51264, Note_on_c, 0, 69, 0
2, 51264, Note_on_c, 0, 71, 62
2, 51456, Note_on_c, 0, 71, 0
2, 51552, Note_on_c, 0, 64, 62
2, 51648, Note_on_c, 0, 64, 0
2, 51648, Note_on_c, 0, 72, 62
2, 51744, Note_on_c, 0, 72, 0
2, 51744, Note_on_c, 0, 71, 62
2, 51840, Note_on_c, 0, 71, 0
2, 51840, Note_on_c, 0, 69, 62
2, 52032, Note_on_c, 0, 69, 0
2, 52128, Note_on_c, 0, 71, 62
2, 52224, Note_on_c, 0, 71, 0
2, 52224, Note_on_c, 0, 72, 62
2, 52320, Note_on_c, 0, 72, 0
2, 52320, Note_on_c, 0, 74, 62
2, 52416, Note_on_c, 0, 74, 0
2, 52416, Note_on_c, 0, 76, 62
2, 52704, Note_on_c, 0, 76, 0
2, 52704, Note_on_c, 0, 67, 62
2, 52800, Note_on_c, 0, 67, 0
2, 52800, Note_on_c, 0, 77, 62
2, 52896, Note_on_c, 0, 77, 0
2, 52896, Note_on_c, 0, 76, 62
2, 52992, Note_on_c, 0, 76, 0
2, 52992, Note_on_c, 0, 74, 62
2, 53280, Note_on_c, 0, 74, 0
2, 53280, Note_on_c, 0, 65, 62
2, 53376, Note_on_c, 0, 65, 0
2, 53376, Note_on_c, 0, 76, 62
2, 53472, Note_on_c, 0, 76, 0
2, 53472, Note_on_c, 0, 74, 62
2, 53568, Note_on_c, 0, 74, 0
2, 53568, Note_on_c, 0, 72, 62
2, 53856, Note_on_c, 0, 72, 0
2, 53856, Note_on_c, 0, 64, 62
2, 53952, Note_on_c, 0, 64, 0
2, 53952, Note_on_c, 0, 74, 62
2, 54048, Note_on_c, 0, 74, 0
2, 54048, Note_on_c, 0, 72, 62
2, 54144, Note_on_c, 0, 72, 0
2, 54144, Note_on_c, 0, 71, 62
2, 54336, Note_on_c, 0, 71, 0
2, 54432, Note_on_c, 0, 64, 62
2, 54528, Note_on_c, 0, 64, 0
2, 54528, Note_on_c, 0, 76, 62
2, 54624, Note_on_c, 0, 76, 0
2, 54816, Note_on_c, 0, 76, 62
2, 54912, Note_on_c, 0, 76, 0
2, 54912, Note_on_c, 0, 88, 62
2, 55008, Note_on_c, 0, 88, 0
2, 55200, Note_on_c, 0, 75, 62
2, 55296, Note_on_c, 0, 75, 0
2, 55296, Note_on_c, 0, 76, 62
2, 55392, Note_on_c, 0, 76, 0
2, 55584, Note_on_c, 0, 75, 62
2, 55680, Note_on_c, 0, 75, 0
2, 55680, Note_on_c, 0, 76, 62
2, 55776, Note_on_c, 0, 76, 0
2, 55776, Note_on_c, 0, 75, 62
2, 55872, Note_on_c, 0, 75, 0
2, 55872, Note_on_c, 0, 76, 62
2, 55968, Note_on_c, 0, 76, 0
2, 55968, Note_on_c, 0, 75, 62
2, 56064, Note_on_c, 0, 75, 0
2, 56064, Note_on_c, 0, 76, 62
2, 56160, Note_on_c, 0, 76, 0
2, 56160, Note_on_c, 0, 71, 62
2, 56256, Note_on_c, 0, 71, 0
2, 56256, Note_on_c, 0, 74, 62
2, 56352, Note_on_c, 0, 74, 0
2, 56352, Note_on_c, 0, 72, 62
2, 56448, Note_on_c, 0, 72, 0
2, 56448, Note_on_c, 0, 69, 62
2, 56640, Note_on_c, 0, 69, 0
2, 56736, Note_on_c, 0, 60, 62
2, 56832, Note_on_c, 0, 60, 0
2, 56832, Note_on_c, 0, 64, 62
2, 56928, Note_on_c, 0, 64, 0
2, 56928, Note_on_c, 0, 69, 62
2, 57024, Note_on_c, 0, 69, 0
2, 57024, Note_on_c, 0, 71, 62
2, 57216, Note_on_c, 0, 71, 0
2, 57312, Note_on_c, 0, 64, 62
2, 57408, Note_on_c, 0, 64, 0
2, 57408, Note_on_c, 0, 68, 62
2, 57504, Note_on_c, 0, 68, 0
2, 57504, Note_on_c, 0, 71, 62
2, 57600, Note_on_c, 0, 71, 0
2, 57600, Note_on_c, 0, 72, 62
2, 57792, Note_on_c, 0, 72, 0
2, 57888, Note_on_c, 0, 64, 62
2, 57984, Note_on_c, 0, 64, 0
2, 57984, Note_on_c, 0, 76, 62
2, 58080, Note_on_c, 0, 76, 0
2, 58080, Note_on_c, 0, 75, 62
2, 58176, Note_on_c, 0, 75, 0
2, 58176, Note_on_c, 0, 76, 62
2, 58272, Note_on_c, 0, 76, 0
2, 58272, Note_on_c, 0, 75, 62
2, 58368, Note_on_c, 0, 75, 0
2, 58368, Note_on_c, 0, 76, 62
2, 58464, Note_on_c, 0, 76, 0
2, 58464, Note_on_c, 0, 71, 62
2, 58560, Note_on_c, 0, 71, 0
2, 58560, Note_on_c, 0, 74, 62
2, 58656, Note_on_c, 0, 74, 0
2, 58656, Note_on_c, 0, 72, 62
2, 58752, Note_on_c, 0, 72, 0
2, 58752, Note_on_c, 0, 69, 62
2, 58944, Note_on_c, 0, 69, 0
2, 59040, Note_on_c, 0, 60, 62
2, 59136, Note_on_c, 0, 60, 0
2, 59136, Note_on_c, 0, 64, 62
2, 59232, Note_on_c, 0, 64, 0
2, 59232, Note_on_c, 0, 69, 62
2, 59328, Note_on_c, 0, 69, 0
2, 59328, Note_on_c, 0, 71, 62
2, 59520, Note_on_c, 0, 71, 0
2, 59616, Note_on_c, 0, 64, 62
2, 59712, Note_on_c, 0, 64, 0
2, 59712, Note_on_c, 0, 72, 62
2, 59808, Note_on_c, 0, 72, 0
2, 59808, Note_on_c, 0, 71, 62
2, 59904, Note_on_c, 0, 71, 0
2, 59904, Note_on_c, 0, 69, 62
2, 60096, Note_on_c, 0, 69, 0
2, 60096, End_track
3, 0, Start_track
3, 0, Title_t, "down:"
3, 0, Control_c, 1, 7, 100
3, 0, Key_signature, 0, "minor"
3, 768, Note_on_c, 1, 45, 62
3, 864, Note_on_c, 1, 45, 0
3, 864, Note_on_c, 1, 52, 62
3, 960, Note_on_c, 1, 52, 0
3, 960, Note_on_c, 1, 57, 62
3, 1056, Note_on_c, 1, 57, 0
3, 1344, Note_on_c, 1, 40, 62
3, 1440, Note_on_c, 1, 40, 0
3, 1440, Note_on_c, 1, 52, 62
3, 1536, Note_on_c, 1, 52, 0
3, 1536, Note_on_c, 1, 56, 62
3, 1632, Note_on_c, 1, 56, 0
3, 1920, Note_on_c, 1, 45, 62
3, 2016, Note_on_c, 1, 45, 0
3, 2016, Note_on_c, 1, 52, 62
3, 2112, Note_on_c, 1, 52, 0
3, 2112, Note_on_c, 1, 57, 62
3, 2208, Note_on_c, 1, 57, 0
3, 3072, Note_on_c, 1, 45, 62
3, 3168, Note_on_c, 1, 45, 0
3, 3168, Note_on_c, 1, 52, 62
3, 3264, Note_on_c, 1, 52, 0
3, 3264, Note_on_c, 1, 57, 62
3, 3360, Note_on_c, 1, 57, 0
3, 3648, Note_on_c, 1, 40, 62
3, 3744, Note_on_c, 1, 40, 0
3, 3744, Note_on_c, 1, 52, 62
3, 3840, Note_on_c, 1, 52, 0
3, 3840, Note_on_c, 1, 56, 62
3, 3936, Note_on_c, 1, 56, 0
3, 4224, Note_on_c, 1, 45, 62
3, 4320, Note_on_c, 1, 45, 0
3, 4320, Note_on_c, 1, 52, 62
3, 4416, Note_on_c, 1, 52, 0
3, 4416, Note_on_c, 1, 57, 62
3, 4512, Note_on_c, 1, 57, 0
3, 4608, Note_on_c, 1, 45, 62
3, 4704, Note_on_c, 1, 45, 0
3, 4704, Note_on_c, 1, 52, 62
3, 4800, Note_on_c, 1, 52, 0
3, 4800, Note_on_c, 1, 57, 62
3, 4896, Note_on_c, 1, 57, 0
3, 5184, Note_on_c, 1, 48, 62
3, 5280, Note_on_c, 1, 48, 0
3, 5280, Note_on_c, 1, 55, 62
3, 5376, Note_on_c, 1, 55, 0
3, 5376, Note_on_c, 1, 60, 62
3, 5472, Note_on_c, 1, 60, 0
3, 5760, Note_on_c, 1, 43, 62
3, 5856, Note_on_c, 1, 43, 0
3, 5856, Note_on_c, 1, 55, 62
3, 5952, Note_on_c, 1, 55, 0
3, 5952, Note_on_c, 1, 59, 62
3, 6048, Note_on_c, 1, 59, 0
3, 6336, Note_on_c, 1, 45, 62
3, 6432, Note_on_c, 1, 45, 0
3, 6432, Note_on_c, 1, 52, 62
3, 6528, Note_on_c, 1, 52, 0
3, 6528, Note_on_c, 1, 57, 62
3, 6624, Note_on_c, 1, 57, 0
3, 6912, Note_on_c, 1, 40, 62
3, 7008, Note_on_c, 1, 40, 0
3, 7008, Note_on_c, 1, 52, 62
3, 7104, Note_on_c, 1, 52, 0
3, 7104, Note_on_c, 1, 64, 62
3, 7200, Note_on_c, 1, 64, 0
3, 7392, Note_on_c, 1, 64, 62
3, 7488, Note_on_c, 1, 64, 0
3, 7488, Note_on_c, 1, 76, 62
3, 7584, Note_on_c, 1, 76, 0
3, 7776, Note_on_c, 1, 75, 62
3, 7872, Note_on_c, 1, 75, 0
3, 7872, Note_on_c, 1, 76, 62
3, 7968, Note_on_c, 1, 76, 0
3, 8160, Note_on_c, 1, 75, 62
3, 8256, Note_on_c, 1, 75, 0
3, 8256, Note_on_c, 1, 76, 62
3, 8352, Note_on_c, 1, 76, 0
3, 9216, Note_on_c, 1, 45, 62
3, 9312, Note_on_c, 1, 45, 0
3, 9312, Note_on_c, 1, 52, 62
3, 9408, Note_on_c, 1, 52, 0
3, 9408, Note_on_c, 1, 57, 62
3, 9504, Note_on_c, 1, 57, 0
3, 9792, Note_on_c, 1, 40, 62
3, 9888, Note_on_c, 1, 40, 0
3, 9888, Note_on_c, 1, 52, 62
3, 9984, Note_on_c, 1, 52, 0
3, 9984, Note_on_c, 1, 56, 62
3, 10080, Note_on_c, 1, 56, 0
3, 10368, Note_on_c, 1, 45, 62
3, 10464, Note_on_c, 1, 45, 0
3, 10464, Note_on_c, 1, 52, 62
3, 10560, Note_on_c, 1, 52, 0
3, 10560, Note_on_c, 1, 57, 62
3, 10656, Note_on_c, 1, 57, 0
3, 11520, Note_on_c, 1, 45, 62
3, 11616, Note_on_c, 1, 45, 0
3, 11616, Note_on_c, 1, 52, 62
3, 11712, Note_on_c, 1, 52, 0
3, 11712, Note_on_c, 1, 57, 62
3, 11808, Note_on_c, 1, 57, 0
3, 12096, Note_on_c, 1, 40, 62
3, 12192, Note_on_c, 1, 40, 0
3, 12192, Note_on_c, 1, 52, 62
3, 12288, Note_on_c, 1, 52, 0
3, 12288, Note_on_c, 1, 56, 62
3, 12384, Note_on_c, 1, 56, 0
3, 12672, Note_on_c, 1, 45, 62
3, 12768, Note_on_c, 1, 45, 0
3, 12768, Note_on_c, 1, 52, 62
3, 12864, Note_on_c, 1, 52, 0
3, 12864, Note_on_c, 1, 57, 62
3, 12960, Note_on_c, 1, 57, 0
3, 13248, Note_on_c, 1, 45, 62
3, 13344, Note_on_c, 1, 45, 0
3, 13344, Note_on_c, 1, 52, 62
3, 13440, Note_on_c, 1, 52, 0
3, 13440, Note_on_c, 1, 57, 62
3, 13536, Note_on_c, 1, 57, 0
3, 13536, Note_on_c, 1, 58, 62
3, 13536, Note_on_c, 1, 60, 62
3, 13632, Note_on_c, 1, 58, 0
3, 13632, Note_on_c, 1, 60, 0
3, 13632, Note_on_c, 1, 57, 62
3, 13632, Note_on_c, 1, 60, 62
3, 13728, Note_on_c, 1, 57, 0
3, 13728, Note_on_c, 1, 60, 0
3, 13728, Note_on_c, 1, 55, 62
3, 13728, Note_on_c, 1, 58, 62
3, 13728, Note_on_c, 1, 60, 62
3, 13824, Note_on_c, 1, 55, 0
3, 13824, Note_on_c, 1, 58, 0
3, 13824, Note_on_c, 1, 60, 0
3, 13824, Note_on_c, 1, 53, 62
3, 13920, Note_on_c, 1, 53, 0
3, 13920, Note_on_c, 1, 57, 62
3, 14016, Note_on_c, 1, 57, 0
3, 14016, Note_on_c, 1, 60, 62
3, 14112, Note_on_c, 1, 60, 0
3, 14112, Note_on_c, 1, 57, 62
3, 14208, Note_on_c, 1, 57, 0
3, 14208, Note_on_c, 1, 60, 62
3, 14304, Note_on_c, 1, 60, 0
3, 14304, Note_on_c, 1, 57, 62
3, 14400, Note_on_c, 1, 57, 0
3, 14400, Note_on_c, 1, 53, 62
3, 14496, Note_on_c, 1, 53, 0
3, 14496, Note_on_c, 1, 58, 62
3, 14592, Note_on_c, 1, 58, 0
3, 14592, Note_on_c, 1, 62, 62
3, 14688, Note_on_c, 1, 62, 0
3, 14688, Note_on_c, 1, 58, 62
3, 14784, Note_on_c, 1, 58, 0
3, 14784, Note_on_c, 1, 62, 62
3, 14880, Note_on_c, 1, 62, 0
3, 14880, Note_on_c, 1, 58, 62
3, 14976, Note_on_c, 1, 58, 0
3, 14976, Note_on_c, 1, 53, 62
3, 15072, Note_on_c, 1, 53, 0
3, 15072, Note_on_c, 1, 64, 62
3, 15168, Note_on_c, 1, 64, 0
3, 15168, Note_on_c, 1, 58, 62
3, 15168, Note_on_c, 1, 55, 62
3, 15168, Note_on_c, 1, 53, 62
3, 15264, Note_on_c, 1, 58, 0
3, 15264, Note_on_c, 1, 55, 0
3, 15264, Note_on_c, 1, 53, 0
3, 15264, Note_on_c, 1, 64, 62
3, 15360, Note_on_c, 1, 64, 0
3, 15360, Note_on_c, 1, 53, 62
3, 15360, Note_on_c, 1, 55, 62
3, 15360, Note_on_c, 1, 58, 62
3, 15456, Note_on_c, 1, 53, 0
3, 15456, Note_on_c, 1, 55, 0
3, 15456, Note_on_c, 1, 58, 0
3, 15456, Note_on_c, 1, 64, 62
3, 15552, Note_on_c, 1, 64, 0
3, 15552, Note_on_c, 1, 53, 62
3, 15648, Note_on_c, 1, 53, 0
3, 15648, Note_on_c, 1, 57, 62
3, 15744, Note_on_c, 1, 57, 0
3, 15744, Note_on_c, 1, 60, 62
3, 15840, Note_on_c, 1, 60, 0
3, 15840, Note_on_c, 1, 57, 62
3, 15936, Note_on_c, 1, 57, 0
3, 15936, Note_on_c, 1, 60, 62
3, 16032, Note_on_c, 1, 60, 0
3, 16032, Note_on_c, 1, 57, 62
3, 16128, Note_on_c, 1, 57, 0
3, 16128, Note_on_c, 1, 53, 62
3, 16224, Note_on_c, 1, 53, 0
3, 16224, Note_on_c, 1, 57, 62
3, 16320, Note_on_c, 1, 57, 0
3, 16320, Note_on_c, 1, 60, 62
3, 16416, Note_on_c, 1, 60, 0
3, 16416, Note_on_c, 1, 57, 62
3, 16512, Note_on_c, 1, 57, 0
3, 16512, Note_on_c, 1, 60, 62
3, 16608, Note_on_c, 1, 60, 0
3, 16608, Note_on_c, 1, 57, 62
3, 16704, Note_on_c, 1, 57, 0
3, 16704, Note_on_c, 1, 52, 62
3, 16800, Note_on_c, 1, 52, 0
3, 16800, Note_on_c, 1, 57, 62
3, 16896, Note_on_c, 1, 57, 0
3, 16896, Note_on_c, 1, 60, 62
3, 16992, Note_on_c, 1, 60, 0
3, 16992, Note_on_c, 1, 57, 62
3, 17088, Note_on_c, 1, 57, 0
3, 17088, Note_on_c, 1, 62, 62
3, 17088, Note_on_c, 1, 50, 62
3, 17184, Note_on_c, 1, 62, 0
3, 17184, Note_on_c, 1, 50, 0
3, 17184, Note_on_c, 1, 53, 62
3, 17280, Note_on_c, 1, 53, 0
3, 17280, Note_on_c, 1, 55, 62
3, 17376, Note_on_c, 1, 55, 0
3, 17376, Note_on_c, 1, 64, 62
3, 17472, Note_on_c, 1, 64, 0
3, 17472, Note_on_c, 1, 55, 62
3, 17568, Note_on_c, 1, 55, 0
3, 17568, Note_on_c, 1, 64, 62
3, 17664, Note_on_c, 1, 64, 0
3, 17664, Note_on_c, 1, 55, 62
3, 17760, Note_on_c, 1, 55, 0
3, 17760, Note_on_c, 1, 65, 62
3, 17856, Note_on_c, 1, 65, 0
3, 17856, Note_on_c, 1, 60, 62
3, 17856, Note_on_c, 1, 64, 62
3, 18048, Note_on_c, 1, 60, 0
3, 18048, Note_on_c, 1, 64, 0
3, 18144, Note_on_c, 1, 65, 62
3, 18144, Note_on_c, 1, 67, 62
3, 18240, Note_on_c, 1, 65, 0
3, 18240, Note_on_c, 1, 67, 0
3, 18240, Note_on_c, 1, 67, 62
3, 18240, Note_on_c, 1, 64, 62
3, 18336, Note_on_c, 1, 67, 0
3, 18336, Note_on_c, 1, 64, 0
3, 18336, Note_on_c, 1, 62, 62
3, 18336, Note_on_c, 1, 65, 62
3, 18336, Note_on_c, 1, 67, 62
3, 18432, Note_on_c, 1, 62, 0
3, 18432, Note_on_c, 1, 65, 0
3, 18432, Note_on_c, 1, 67, 0
3, 18432, Note_on_c, 1, 60, 62
3, 18432, Note_on_c, 1, 64, 62
3, 18432, Note_on_c, 1, 67, 62
3, 18624, Note_on_c, 1, 60, 0
3, 18624, Note_on_c, 1, 64, 0
3, 18624, Note_on_c, 1, 67, 0
3, 18624, Note_on_c, 1, 53, 62
3, 18624, Note_on_c, 1, 57, 62
3, 18816, Note_on_c, 1, 53, 0
3, 18816, Note_on_c, 1, 57, 0
3, 18816, Note_on_c, 1, 55, 62
3, 18816, Note_on_c, 1, 59, 62
3, 19008, Note_on_c, 1, 55, 0
3, 19008, Note_on_c, 1, 59, 0
3, 19008, Note_on_c, 1, 60, 62
3, 19200, Note_on_c, 1, 60, 0
3, 19296, Note_on_c, 1, 67, 62
3, 19296, Note_on_c, 1, 65, 62
3, 19392, Note_on_c, 1, 67, 0
3, 19392, Note_on_c, 1, 65, 0
3, 19392, Note_on_c, 1, 64, 62
3, 19392, Note_on_c, 1, 67, 62
3, 19488, Note_on_c, 1, 64, 0
3, 19488, Note_on_c, 1, 67, 0
3, 19488, Note_on_c, 1, 62, 62
3, 19488, Note_on_c, 1, 65, 62
3, 19488, Note_on_c, 1, 67, 62
3, 19584, Note_on_c, 1, 62, 0
3, 19584, Note_on_c, 1, 65, 0
3, 19584, Note_on_c, 1, 67, 0
3, 19584, Note_on_c, 1, 60, 62
3, 19584, Note_on_c, 1, 64, 62
3, 19584, Note_on_c, 1, 67, 62
3, 19776, Note_on_c, 1, 60, 0
3, 19776, Note_on_c, 1, 64, 0
3, 19776, Note_on_c, 1, 67, 0
3, 19776, Note_on_c, 1, 53, 62
3, 19776, Note_on_c, 1, 57, 62
3, 19968, Note_on_c, 1, 53, 0
3, 19968, Note_on_c, 1, 57, 0
3, 19968, Note_on_c, 1, 59, 62
3, 19968, Note_on_c, 1, 55, 62
3, 20160, Note_on_c, 1, 59, 0
3, 20160, Note_on_c, 1, 55, 0
3, 20160, Note_on_c, 1, 56, 62
3, 20160, Note_on_c, 1, 59, 62
3, 20352, Note_on_c, 1, 56, 0
3, 20352, Note_on_c, 1, 59, 0
3, 23040, Note_on_c, 1, 45, 62
3, 23136, Note_on_c, 1, 45, 0
3, 23136, Note_on_c, 1, 52, 62
3, 23232, Note_on_c, 1, 52, 0
3, 23232, Note_on_c, 1, 57, 62
3, 23328, Note_on_c, 1, 57, 0
3, 23616, Note_on_c, 1, 40, 62
3, 23712, Note_on_c, 1, 40, 0
3, 23712, Note_on_c, 1, 52, 62
3, 23808, Note_on_c, 1, 52, 0
3, 23808, Note_on_c, 1, 56, 62
3, 23904, Note_on_c, 1, 56, 0
3, 24192, Note_on_c, 1, 45, 62
3, 24288, Note_on_c, 1, 45, 0
3, 24288, Note_on_c, 1, 52, 62
3, 24384, Note_on_c, 1, 52, 0
3, 24384, Note_on_c, 1, 57, 62
3, 24480, Note_on_c, 1, 57, 0
3, 25344, Note_on_c, 1, 45, 62
3, 25440, Note_on_c, 1, 45, 0
3, 25440, Note_on_c, 1, 52, 62
3, 25536, Note_on_c, 1, 52, 0
3, 25536, Note_on_c, 1, 57, 62
3, 25632, Note_on_c, 1, 57, 0
3, 25920, Note_on_c, 1, 40, 62
3, 26016, Note_on_c, 1, 40, 0
3, 26016, Note_on_c, 1, 52, 62
3, 26112, Note_on_c, 1, 52, 0
3, 26112, Note_on_c, 1, 56, 62
3, 26208, Note_on_c, 1, 56, 0
3, 26496, Note_on_c, 1, 45, 62
3, 26592, Note_on_c, 1, 45, 0
3, 26592, Note_on_c, 1, 52, 62
3, 26688, Note_on_c, 1, 52, 0
3, 26688, Note_on_c, 1, 57, 62
3, 26784, Note_on_c, 1, 57, 0
3, 27072, Note_on_c, 1, 48, 62
3, 27168, Note_on_c, 1, 48, 0
3, 27168, Note_on_c, 1, 55, 62
3, 27264, Note_on_c, 1, 55, 0
3, 27264, Note_on_c, 1, 60, 62
3, 27360, Note_on_c, 1, 60, 0
3, 27648, Note_on_c, 1, 43, 62
3, 27744, Note_on_c, 1, 43, 0
3, 27744, Note_on_c, 1, 55, 62
3, 27840, Note_on_c, 1, 55, 0
3, 27840, Note_on_c, 1, 59, 62
3, 27936, Note_on_c, 1, 59, 0
3, 28224, Note_on_c, 1, 45, 62
3, 28320, Note_on_c, 1, 45, 0
3, 28320, Note_on_c, 1, 52, 62
3, 28416, Note_on_c, 1, 52, 0
3, 28416, Note_on_c, 1, 57, 62
3, 28512, Note_on_c, 1, 57, 0
3, 28800, Note_on_c, 1, 40, 62
3, 28896, Note_on_c, 1, 40, 0
3, 28896, Note_on_c, 1, 52, 62
3, 28992, Note_on_c, 1, 52, 0
3, 28992, Note_on_c, 1, 64, 62
3, 29088, Note_on_c, 1, 64, 0
3, 29280, Note_on_c, 1, 64, 62
3, 29376, Note_on_c, 1, 64, 0
3, 29376, Note_on_c, 1, 76, 62
3, 29472, Note_on_c, 1, 76, 0
3, 29664, Note_on_c, 1, 75, 62
3, 29760, Note_on_c, 1, 75, 0
3, 29760, Note_on_c, 1, 76, 62
3, 29856, Note_on_c, 1, 76, 0
3, 30048, Note_on_c, 1, 75, 62
3, 30144, Note_on_c, 1, 75, 0
3, 30144, Note_on_c, 1, 76, 62
3, 30240, Note_on_c, 1, 76, 0
3, 31104, Note_on_c, 1, 45, 62
3, 31200, Note_on_c, 1, 45, 0
3, 31200, Note_on_c, 1, 52, 62
3, 31296, Note_on_c, 1, 52, 0
3, 31296, Note_on_c, 1, 57, 62
3, 31392, Note_on_c, 1, 57, 0
3, 31680, Note_on_c, 1, 40, 62
3, 31776, Note_on_c, 1, 40, 0
3, 31776, Note_on_c, 1, 52, 62
3, 31872, Note_on_c, 1, 52, 0
3, 31872, Note_on_c, 1, 56, 62
3, 31968, Note_on_c, 1, 56, 0
3, 32256, Note_on_c, 1, 45, 62
3, 32352, Note_on_c, 1, 45, 0
3, 32352, Note_on_c, 1, 52, 62
3, 32448, Note_on_c, 1, 52, 0
3, 32448, Note_on_c, 1, 57, 62
3, 32544, Note_on_c, 1, 57, 0
3, 33408, Note_on_c, 1, 45, 62
3, 33504, Note_on_c, 1, 45, 0
3, 33504, Note_on_c, 1, 52, 62
3, 33600, Note_on_c, 1, 52, 0
3, 33600, Note_on_c, 1, 57, 62
3, 33696, Note_on_c, 1, 57, 0
3, 33984, Note_on_c, 1, 40, 62
3, 34080, Note_on_c, 1, 40, 0
3, 34080, Note_on_c, 1, 52, 62
3, 34176, Note_on_c, 1, 52, 0
3, 34176, Note_on_c, 1, 56, 62
3, 34272, Note_on_c, 1, 56, 0
3, 34560, Note_on_c, 1, 45, 62
3, 34656, Note_on_c, 1, 45, 0
3, 34656, Note_on_c, 1, 45, 62
3, 34752, Note_on_c, 1, 45, 0
3, 34752, Note_on_c, 1, 45, 62
3, 34848, Note_on_c, 1, 45, 0
3, 34848, Note_on_c, 1, 45, 62
3, 34944, Note_on_c, 1, 45, 0
3, 34944, Note_on_c, 1, 45, 62
3, 35040, Note_on_c, 1, 45, 0
3, 35040, Note_on_c, 1, 45, 62
3, 35136, Note_on_c, 1, 45, 0
3, 35136, Note_on_c, 1, 45, 62
3, 35232, Note_on_c, 1, 45, 0
3, 35232, Note_on_c, 1, 45, 62
3, 35328, Note_on_c, 1, 45, 0
3, 35328, Note_on_c, 1, 45, 62
3, 35424, Note_on_c, 1, 45, 0
3, 35424, Note_on_c, 1, 45, 62
3, 35520, Note_on_c, 1, 45, 0
3, 35520, Note_on_c, 1, 45, 62
3, 35616, Note_on_c, 1, 45, 0
3, 35616, Note_on_c, 1, 45, 62
3, 35712, Note_on_c, 1, 45, 0
3, 35712, Note_on_c, 1, 45, 62
3, 35808, Note_on_c, 1, 45, 0
3, 35808, Note_on_c, 1, 45, 62
3, 35904, Note_on_c, 1, 45, 0
3, 35904, Note_on_c, 1, 45, 62
3, 36000, Note_on_c, 1, 45, 0
3, 36000, Note_on_c, 1, 45, 62
3, 36096, Note_on_c, 1, 45, 0
3, 36096, Note_on_c, 1, 45, 62
3, 36192, Note_on_c, 1, 45, 0
3, 36192, Note_on_c, 1, 45, 62
3, 36288, Note_on_c, 1, 45, 0
3, 36288, Note_on_c, 1, 45, 62
3, 36384, Note_on_c, 1, 45, 0
3, 36384, Note_on_c, 1, 45, 62
3, 36480, Note_on_c, 1, 45, 0
3, 36480, Note_on_c, 1, 45, 62
3, 36576, Note_on_c, 1, 45, 0
3, 36576, Note_on_c, 1, 45, 62
3, 36672, Note_on_c, 1, 45, 0
3, 36672, Note_on_c, 1, 45, 62
3, 36768, Note_on_c, 1, 45, 0
3, 36768, Note_on_c, 1, 45, 62
3, 36864, Note_on_c, 1, 45, 0
3, 36864, Note_on_c, 1, 45, 62
3, 36960, Note_on_c, 1, 45, 0
3, 36960, Note_on_c, 1, 45, 62
3, 37056, Note_on_c, 1, 45, 0
3, 37056, Note_on_c, 1, 45, 62
3, 37152, Note_on_c, 1, 45, 0
3, 37152, Note_on_c, 1, 45, 62
3, 37248, Note_on_c, 1, 45, 0
3, 37248, Note_on_c, 1, 45, 62
3, 37344, Note_on_c, 1, 45, 0
3, 37344, Note_on_c, 1, 45, 62
3, 37440, Note_on_c, 1, 45, 0
3, 37440, Note_on_c, 1, 45, 62
3, 37440, Note_on_c, 1, 38, 62
3, 37536, Note_on_c, 1, 45, 0
3, 37536, Note_on_c, 1, 38, 0
3, 37536, Note_on_c, 1, 38, 62
3, 37536, Note_on_c, 1, 45, 62
3, 37632, Note_on_c, 1, 38, 0
3, 37632, Note_on_c, 1, 45, 0
3, 37632, Note_on_c, 1, 38, 62
3, 37632, Note_on_c, 1, 45, 62
3, 37728, Note_on_c, 1, 38, 0
3, 37728, Note_on_c, 1, 45, 0
3, 37728, Note_on_c, 1, 38, 62
3, 37728, Note_on_c, 1, 45, 62
3, 37824, Note_on_c, 1, 38, 0
3, 37824, Note_on_c, 1, 45, 0
3, 37824, Note_on_c, 1, 38, 62
3, 37824, Note_on_c, 1, 45, 62
3, 37920, Note_on_c, 1, 38, 0
3, 37920, Note_on_c, 1, 45, 0
3, 37920, Note_on_c, 1, 38, 62
3, 37920, Note_on_c, 1, 45, 62
3, 38016, Note_on_c, 1, 38, 0
3, 38016, Note_on_c, 1, 45, 0
3, 38016, Note_on_c, 1, 45, 62
3, 38016, Note_on_c, 1, 39, 62
3, 38112, Note_on_c, 1, 45, 0
3, 38112, Note_on_c, 1, 39, 0
3, 38112, Note_on_c, 1, 39, 62
3, 38112, Note_on_c, 1, 45, 62
3, 38208, Note_on_c, 1, 39, 0
3, 38208, Note_on_c, 1, 45, 0
3, 38208, Note_on_c, 1, 39, 62
3, 38208, Note_on_c, 1, 45, 62
3, 38304, Note_on_c, 1, 39, 0
3, 38304, Note_on_c, 1, 45, 0
3, 38304, Note_on_c, 1, 39, 62
3, 38304, Note_on_c, 1, 45, 62
3, 38400, Note_on_c, 1, 39, 0
3, 38400, Note_on_c, 1, 45, 0
3, 38400, Note_on_c, 1, 39, 62
3, 38400, Note_on_c, 1, 45, 62
3, 38496, Note_on_c, 1, 39, 0
3, 38496, Note_on_c, 1, 45, 0
3, 38496, Note_on_c, 1, 39, 62
3, 38496, Note_on_c, 1, 45, 62
3, 38592, Note_on_c, 1, 39, 0
3, 38592, Note_on_c, 1, 45, 0
3, 38592, Note_on_c, 1, 45, 62
3, 38592, Note_on_c, 1, 40, 62
3, 38688, Note_on_c, 1, 45, 0
3, 38688, Note_on_c, 1, 40, 0
3, 38688, Note_on_c, 1, 40, 62
3, 38688, Note_on_c, 1, 45, 62
3, 38784, Note_on_c, 1, 40, 0
3, 38784, Note_on_c, 1, 45, 0
3, 38784, Note_on_c, 1, 40, 62
3, 38784, Note_on_c, 1, 45, 62
3, 38880, Note_on_c, 1, 40, 0
3, 38880, Note_on_c, 1, 45, 0
3, 38880, Note_on_c, 1, 40, 62
3, 38880, Note_on_c, 1, 45, 62
3, 38976, Note_on_c, 1, 40, 0
3, 38976, Note_on_c, 1, 45, 0
3, 38976, Note_on_c, 1, 40, 62
3, 38976, Note_on_c, 1, 44, 62
3, 39072, Note_on_c, 1, 40, 0
3, 39072, Note_on_c, 1, 44, 0
3, 39072, Note_on_c, 1, 40, 62
3, 39072, Note_on_c, 1, 44, 62
3, 39168, Note_on_c, 1, 40, 0
3, 39168, Note_on_c, 1, 44, 0
3, 39168, Note_on_c, 1, 45, 62
3, 39168, Note_on_c, 1, 33, 62
3, 39264, Note_on_c, 1, 45, 0
3, 39264, Note_on_c, 1, 33, 0
3, 39264, Note_on_c, 1, 45, 62
3, 39360, Note_on_c, 1, 45, 0
3, 39360, Note_on_c, 1, 45, 62
3, 39456, Note_on_c, 1, 45, 0
3, 39456, Note_on_c, 1, 45, 62
3, 39552, Note_on_c, 1, 45, 0
3, 39552, Note_on_c, 1, 45, 62
3, 39648, Note_on_c, 1, 45, 0
3, 39648, Note_on_c, 1, 45, 62
3, 39744, Note_on_c, 1, 45, 0
3, 39744, Note_on_c, 1, 45, 62
3, 39840, Note_on_c, 1, 45, 0
3, 39840, Note_on_c, 1, 45, 62
3, 39936, Note_on_c, 1, 45, 0
3, 39936, Note_on_c, 1, 45, 62
3, 40032, Note_on_c, 1, 45, 0
3, 40032, Note_on_c, 1, 45, 62
3, 40128, Note_on_c, 1, 45, 0
3, 40128, Note_on_c, 1, 45, 62
3, 40224, Note_on_c, 1, 45, 0
3, 40224, Note_on_c, 1, 45, 62
3, 40320, Note_on_c, 1, 45, 0
3, 40320, Note_on_c, 1, 45, 62
3, 40416, Note_on_c, 1, 45, 0
3, 40416, Note_on_c, 1, 45, 62
3, 40512, Note_on_c, 1, 45, 0
3, 40512, Note_on_c, 1, 45, 62
3, 40608, Note_on_c, 1, 45, 0
3, 40608, Note_on_c, 1, 45, 62
3, 40704, Note_on_c, 1, 45, 0
3, 40704, Note_on_c, 1, 45, 62
3, 40800, Note_on_c, 1, 45, 0
3, 40800, Note_on_c, 1, 45, 62
3, 40896, Note_on_c, 1, 45, 0
3, 40896, Note_on_c, 1, 45, 62
3, 40992, Note_on_c, 1, 45, 0
3, 40992, Note_on_c, 1, 45, 62
3, 41088, Note_on_c, 1, 45, 0
3, 41088, Note_on_c, 1, 45, 62
3, 41184, Note_on_c, 1, 45, 0
3, 41184, Note_on_c, 1, 45, 62
3, 41280, Note_on_c, 1, 45, 0
3, 41280, Note_on_c, 1, 45, 62
3, 41376, Note_on_c, 1, 45, 0
3, 41376, Note_on_c, 1, 45, 62
3, 41472, Note_on_c, 1, 45, 0
3, 41472, Note_on_c, 1, 46, 62
3, 41568, Note_on_c, 1, 46, 0
3, 41568, Note_on_c, 1, 46, 62
3, 41664, Note_on_c, 1, 46, 0
3, 41664, Note_on_c, 1, 46, 62
3, 41760, Note_on_c, 1, 46, 0
3, 41760, Note_on_c, 1, 46, 62
3, 41856, Note_on_c, 1, 46, 0
3, 41856, Note_on_c, 1, 46, 62
3, 41952, Note_on_c, 1, 46, 0
3, 41952, Note_on_c, 1, 46, 62
3, 42048, Note_on_c, 1, 46, 0
3, 42048, Note_on_c, 1, 46, 62
3, 42144, Note_on_c, 1, 46, 0
3, 42144, Note_on_c, 1, 46, 62
3, 42240, Note_on_c, 1, 46, 0
3, 42240, Note_on_c, 1, 46, 62
3, 42336, Note_on_c, 1, 46, 0
3, 42336, Note_on_c, 1, 46, 62
3, 42432, Note_on_c, 1, 46, 0
3, 42432, Note_on_c, 1, 46, 62
3, 42528, Note_on_c, 1, 46, 0
3, 42528, Note_on_c, 1, 46, 62
3, 42624, Note_on_c, 1, 46, 0
3, 42624, Note_on_c, 1, 46, 62
3, 42720, Note_on_c, 1, 46, 0
3, 42720, Note_on_c, 1, 46, 62
3, 42816, Note_on_c, 1, 46, 0
3, 42816, Note_on_c, 1, 46, 62
3, 42912, Note_on_c, 1, 46, 0
3, 42912, Note_on_c, 1, 46, 62
3, 43008, Note_on_c, 1, 46, 0
3, 43008, Note_on_c, 1, 46, 62
3, 43104, Note_on_c, 1, 46, 0
3, 43104, Note_on_c, 1, 46, 62
3, 43200, Note_on_c, 1, 46, 0
3, 43200, Note_on_c, 1, 47, 62
3, 43296, Note_on_c, 1, 47, 0
3, 43296, Note_on_c, 1, 47, 62
3, 43392, Note_on_c, 1, 47, 0
3, 43392, Note_on_c, 1, 47, 62
3, 43488, Note_on_c, 1, 47, 0
3, 43488, Note_on_c, 1, 47, 62
3, 43584, Note_on_c, 1, 47, 0
3, 43584, Note_on_c, 1, 47, 62
3, 43680, Note_on_c, 1, 47, 0
3, 43680, Note_on_c, 1, 47, 62
3, 43776, Note_on_c, 1, 47, 0
3, 43776, Note_on_c, 1, 48, 62
3, 44160, Note_on_c, 1, 48, 0
3, 44352, Note_on_c, 1, 56, 62
3, 44352, Note_on_c, 1, 52, 62
3, 44544, Note_on_c, 1, 56, 0
3, 44544, Note_on_c, 1, 52, 0
3, 44928, Note_on_c, 1, 33, 62
3, 45120, Note_on_c, 1, 33, 0
3, 45312, Note_on_c, 1, 57, 62
3, 45312, Note_on_c, 1, 60, 62
3, 45312, Note_on_c, 1, 64, 62
3, 45504, Note_on_c, 1, 57, 0
3, 45504, Note_on_c, 1, 60, 0
3, 45504, Note_on_c, 1, 64, 0
3, 45504, Note_on_c, 1, 57, 62
3, 45504, Note_on_c, 1, 60, 62
3, 45504, Note_on_c, 1, 64, 62
3, 45696, Note_on_c, 1, 57, 0
3, 45696, Note_on_c, 1, 60, 0
3, 45696, Note_on_c, 1, 64, 0
3, 45888, Note_on_c, 1, 57, 62
3, 45888, Note_on_c, 1, 60, 62
3, 45888, Note_on_c, 1, 64, 62
3, 46080, Note_on_c, 1, 57, 0
3, 46080, Note_on_c, 1, 60, 0
3, 46080, Note_on_c, 1, 64, 0
3, 46080, Note_on_c, 1, 64, 62
3, 46080, Note_on_c, 1, 60, 62
3, 46080, Note_on_c, 1, 57, 62
3, 46272, Note_on_c, 1, 64, 0
3, 46272, Note_on_c, 1, 60, 0
3, 46272, Note_on_c, 1, 57, 0
3, 46464, Note_on_c, 1, 57, 62
3, 46464, Note_on_c, 1, 60, 62
3, 46464, Note_on_c, 1, 64, 62
3, 46656, Note_on_c, 1, 57, 0
3, 46656, Note_on_c, 1, 60, 0
3, 46656, Note_on_c, 1, 64, 0
3, 46656, Note_on_c, 1, 57, 62
3, 46656, Note_on_c, 1, 60, 62
3, 46656, Note_on_c, 1, 64, 62
3, 46848, Note_on_c, 1, 57, 0
3, 46848, Note_on_c, 1, 60, 0
3, 46848, Note_on_c, 1, 64, 0
3, 48384, Note_on_c, 1, 45, 62
3, 48480, Note_on_c, 1, 45, 0
3, 48480, Note_on_c, 1, 52, 62
3, 48576, Note_on_c, 1, 52, 0
3, 48576, Note_on_c, 1, 57, 62
3, 48672, Note_on_c, 1, 57, 0
3, 48960, Note_on_c, 1, 40, 62
3, 49056, Note_on_c, 1, 40, 0
3, 49056, Note_on_c, 1, 52, 62
3, 49152, Note_on_c, 1, 52, 0
3, 49152, Note_on_c, 1, 56, 62
3, 49248, Note_on_c, 1, 56, 0
3, 49536, Note_on_c, 1, 45, 62
3, 49632, Note_on_c, 1, 45, 0
3, 49632, Note_on_c, 1, 52, 62
3, 49728, Note_on_c, 1, 52, 0
3, 49728, Note_on_c, 1, 57, 62
3, 49824, Note_on_c, 1, 57, 0
3, 50688, Note_on_c, 1, 45, 62
3, 50784, Note_on_c, 1, 45, 0
3, 50784, Note_on_c, 1, 52, 62
3, 50880, Note_on_c, 1, 52, 0
3, 50880, Note_on_c, 1, 57, 62
3, 50976, Note_on_c, 1, 57, 0
3, 51264, Note_on_c, 1, 40, 62
3, 51360, Note_on_c, 1, 40, 0
3, 51360, Note_on_c, 1, 52, 62
3, 51456, Note_on_c, 1, 52, 0
3, 51456, Note_on_c, 1, 56, 62
3, 51552, Note_on_c, 1, 56, 0
3, 51840, Note_on_c, 1, 45, 62
3, 51936, Note_on_c, 1, 45, 0
3, 51936, Note_on_c, 1, 52, 62
3, 52032, Note_on_c, 1, 52, 0
3, 52032, Note_on_c, 1, 57, 62
3, 52128, Note_on_c, 1, 57, 0
3, 52416, Note_on_c, 1, 48, 62
3, 52512, Note_on_c, 1, 48, 0
3, 52512, Note_on_c, 1, 55, 62
3, 52608, Note_on_c, 1, 55, 0
3, 52608, Note_on_c, 1, 60, 62
3, 52704, Note_on_c, 1, 60, 0
3, 52992, Note_on_c, 1, 43, 62
3, 53088, Note_on_c, 1, 43, 0
3, 53088, Note_on_c, 1, 55, 62
3, 53184, Note_on_c, 1, 55, 0
3, 53184, Note_on_c, 1, 59, 62
3, 53280, Note_on_c, 1, 59, 0
3, 53568, Note_on_c, 1, 45, 62
3, 53664, Note_on_c, 1, 45, 0
3, 53664, Note_on_c, 1, 52, 62
3, 53760, Note_on_c, 1, 52, 0
3, 53760, Note_on_c, 1, 57, 62
3, 53856, Note_on_c, 1, 57, 0
3, 54144, Note_on_c, 1, 40, 62
3, 54240, Note_on_c, 1, 40, 0
3, 54240, Note_on_c, 1, 52, 62
3, 54336, Note_on_c, 1, 52, 0
3, 54336, Note_on_c, 1, 64, 62
3, 54432, Note_on_c, 1, 64, 0
3, 54624, Note_on_c, 1, 64, 62
3, 54720, Note_on_c, 1, 64, 0
3, 54720, Note_on_c, 1, 76, 62
3, 54816, Note_on_c, 1, 76, 0
3, 55008, Note_on_c, 1, 75, 62
3, 55104, Note_on_c, 1, 75, 0
3, 55104, Note_on_c, 1, 76, 62
3, 55200, Note_on_c, 1, 76, 0
3, 55392, Note_on_c, 1, 75, 62
3, 55488, Note_on_c, 1, 75, 0
3, 55488, Note_on_c, 1, 76, 62
3, 55584, Note_on_c, 1, 76, 0
3, 56448, Note_on_c, 1, 45, 62
3, 56544, Note_on_c, 1, 45, 0
3, 56544, Note_on_c, 1, 52, 62
3, 56640, Note_on_c, 1, 52, 0
3, 56640, Note_on_c, 1, 57, 62
3, 56736, Note_on_c, 1, 57, 0
3, 57024, Note_on_c, 1, 40, 62
3, 57120, Note_on_c, 1, 40, 0
3, 57120, Note_on_c, 1, 52, 62
3, 57216, Note_on_c, 1, 52, 0
3, 57216, Note_on_c, 1, 56, 62
3, 57312, Note_on_c, 1, 56, 0
3, 57600, Note_on_c, 1, 45, 62
3, 57696, Note_on_c, 1, 45, 0
3, 57696, Note_on_c, 1, 52, 62
3, 57792, Note_on_c, 1, 52, 0
3, 57792, Note_on_c, 1, 57, 62
3, 57888, Note_on_c, 1, 57, 0
3, 58752, Note_on_c, 1, 45, 62
3, 58848, Note_on_c, 1, 45, 0
3, 58848, Note_on_c, 1, 52, 62
3, 58944, Note_on_c, 1, 52, 0
3, 58944, Note_on_c, 1, 57, 62
3, 59040, Note_on_c, 1, 57, 0
3, 59328, Note_on_c, 1, 40, 62
3, 59424, Note_on_c, 1, 40, 0
3, 59424, Note_on_c, 1, 52, 62
3, 59520, Note_on_c, 1, 52, 0
3, 59520, Note_on_c, 1, 56, 62
3, 59616, Note_on_c, 1, 56, 0
3, 59904, Note_on_c, 1, 33, 62
3, 59904, Note_on_c, 1, 45, 62
3, 60096, Note_on_c, 1, 33, 0
3, 60096, Note_on_c, 1, 45, 0
3, 60096, End_track
0, 0, End_of_file
