0, 0, Header, 1, 1, 192
1, 0, Start_track
1, 0, System_exclusive, 10, 65, 16, 66, 18, 64, 0, 127, 0, 65, 247
1, 0, Control_c, 0, 0, 0
1, 0, Program_c, 0, 0
1, 0, Sequencer_specific, 20, 74, 65, 90, 50, 1, 0, 0, 0, 0, 0, 0, 0, 0, 0, 0, 0, 0, 0, 0, 0
1, 0, Note_on_c, 0, 40, 64
1, 0, Title_t, "Piano"
1, 0, Tempo, 428571
1, 0, Note_on_c, 0, 76, 64
1, 0, Note_on_c, 1, 71, 64
1, 96, Note_on_c, 2, 52, 64
1, 188, Note_on_c, 0, 71, 0
1, 188, Note_on_c, 1, 76, 0
1, 188, Note_on_c, 2, 52, 0
1, 192, Note_on_c, 0, 40, 64
1, 192, Note_on_c, 1, 68, 64
1, 192, Note_on_c, 2, 71, 64
1, 284, Note_on_c, 0, 71, 0
1, 284, Note_on_c, 1, 40, 0
1, 284, Note_on_c, 2, 68, 0
1, 288, Note_on_c, 0, 52, 64
1, 288, Note_on_c, 1, 72, 64
1, 288, Note_on_c, 2, 69, 64
1, 380, Note_on_c, 0, 52, 0
1, 380, Note_on_c, 1, 72, 0
1, 380, Note_on_c, 2, 69, 0
1, 384, Note_on_c, 0, 74, 64
1, 384, Note_on_c, 1, 71, 64
1, 384, Note_on_c, 2, 40, 64
1, 476, Note_on_c, 0, 40, 0
1, 476, Note_on_c, 1, 74, 0
1, 476, Note_on_c, 2, 71, 0
1, 480, Note_on_c, 0, 52, 64
1, 480, Note_on_c, 1, 76, 64
1, 480, Note_on_c, 2, 68, 64
1, 524, Note_on_c, 1, 76, 0
1, 528, Note_on_c, 1, 74, 64
1, 572, Note_on_c, 0, 52, 0
1, 572, Note_on_c, 1, 68, 0
1, 572, Note_on_c, 2, 74, 0
1, 576, Note_on_c, 0, 40, 64
1, 576, Note_on_c, 1, 72, 64
1, 576, Note_on_c, 2, 69, 64
1, 668, Note_on_c, 0, 72, 0
1, 668, Note_on_c, 1, 40, 0
1, 668, Note_on_c, 2, 69, 0
1, 672, Note_on_c, 0, 71, 64
1, 672, Note_on_c, 1, 52, 64
1, 672, Note_on_c, 2, 68, 64
1, 764, Note_on_c, 0, 71, 0
1, 764, Note_on_c, 1, 52, 0
1, 764, Note_on_c, 2, 68, 0
1, 768, Note_on_c, 0, 45, 64
1, 768, Note_on_c, 1, 64, 64
1, 768, Note_on_c, 2, 69, 64
1, 860, Note_on_c, 0, 45, 0
1, 864, Note_on_c, 0, 57, 64
1, 956, Note_on_c, 0, 69, 0
1, 956, Note_on_c, 1, 57, 0
1, 956, Note_on_c, 2, 64, 0
1, 960, Note_on_c, 0, 45, 64
1, 960, Note_on_c, 1, 64, 64
1, 960, Note_on_c, 2, 69, 64
1, 1052, Note_on_c, 0, 64, 0
1, 1052, Note_on_c, 1, 69, 0
1, 1052, Note_on_c, 2, 45, 0
1, 1056, Note_on_c, 0, 69, 64
1, 1056, Note_on_c, 1, 57, 64
1, 1056, Note_on_c, 2, 72, 64
1, 1148, Note_on_c, 0, 57, 0
1, 1148, Note_on_c, 1, 72, 0
1, 1148, Note_on_c, 2, 69, 0
1, 1152, Note_on_c, 0, 45, 64
1, 1152, Note_on_c, 1, 72, 64
1, 1152, Note_on_c, 2, 76, 64
1, 1244, Note_on_c, 0, 45, 0
1, 1248, Note_on_c, 0, 57, 64
1, 1340, Note_on_c, 0, 76, 0
1, 1340, Note_on_c, 1, 72, 0
1, 1340, Note_on_c, 2, 57, 0
1, 1344, Note_on_c, 0, 71, 64
1, 1344, Note_on_c, 1, 74, 64
1, 1344, Note_on_c, 2, 45, 64
1, 1436, Note_on_c, 0, 45, 0
1, 1436, Note_on_c, 1, 74, 0
1, 1436, Note_on_c, 2, 71, 0
1, 1440, Note_on_c, 0, 72, 64
1, 1440, Note_on_c, 1, 57, 64
1, 1440, Note_on_c, 2, 69, 64
1, 1532, Note_on_c, 0, 57, 0
1, 1532, Note_on_c, 1, 72, 0
1, 1532, Note_on_c, 2, 69, 0
1, 1536, Note_on_c, 0, 71, 64
1, 1536, Note_on_c, 1, 68, 64
1, 1536, Note_on_c, 2, 44, 64
1, 1628, Note_on_c, 2, 44, 0
1, 1632, Note_on_c, 2, 56, 64
1, 1724, Note_on_c, 0, 68, 0
1, 1724, Note_on_c, 1, 71, 0
1, 1724, Note_on_c, 2, 56, 0
1, 1728, Note_on_c, 0, 44, 64
1, 1728, Note_on_c, 1, 68, 64
1, 1728, Note_on_c, 2, 71, 64
1, 1820, Note_on_c, 0, 71, 0
1, 1820, Note_on_c, 1, 68, 0
1, 1820, Note_on_c, 2, 44, 0
1, 1824, Note_on_c, 0, 56, 64
1, 1824, Note_on_c, 1, 72, 64
1, 1824, Note_on_c, 2, 69, 64
1, 1916, Note_on_c, 0, 69, 0
1, 1916, Note_on_c, 1, 72, 0
1, 1916, Note_on_c, 2, 56, 0
1, 1920, Note_on_c, 0, 74, 64
1, 1920, Note_on_c, 1, 40, 64
1, 1920, Note_on_c, 2, 71, 64
1, 2012, Note_on_c, 1, 40, 0
1, 2016, Note_on_c, 1, 52, 64
1, 2108, Note_on_c, 0, 52, 0
1, 2108, Note_on_c, 1, 71, 0
1, 2108, Note_on_c, 2, 74, 0
1, 2112, Note_on_c, 0, 76, 64
1, 2112, Note_on_c, 1, 71, 64
1, 2112, Note_on_c, 2, 40, 64
1, 2204, Note_on_c, 2, 40, 0
1, 2208, Note_on_c, 2, 52, 64
1, 2300, Note_on_c, 0, 71, 0
1, 2300, Note_on_c, 1, 76, 0
1, 2300, Note_on_c, 2, 52, 0
1, 2304, Note_on_c, 0, 69, 64
1, 2304, Note_on_c, 1, 72, 64
1, 2304, Note_on_c, 2, 45, 64
1, 2396, Note_on_c, 2, 45, 0
1, 2400, Note_on_c, 2, 57, 64
1, 2492, Note_on_c, 0, 72, 0
1, 2492, Note_on_c, 1, 57, 0
1, 2492, Note_on_c, 2, 69, 0
1, 2496, Note_on_c, 0, 45, 64
1, 2496, Note_on_c, 1, 64, 64
1, 2496, Note_on_c, 2, 69, 64
1, 2588, Note_on_c, 0, 45, 0
1, 2592, Note_on_c, 0, 57, 64
1, 2684, Note_on_c, 0, 69, 0
1, 2684, Note_on_c, 1, 64, 0
1, 2684, Note_on_c, 2, 57, 0
1, 2688, Note_on_c, 0, 64, 64
1, 2688, Note_on_c, 1, 69, 64
1, 2688, Note_on_c, 2, 45, 64
1, 2780, Note_on_c, 2, 45, 0
1, 2784, Note_on_c, 2, 57, 64
1, 2876, Note_on_c, 2, 57, 0
1, 2880, Note_on_c, 2, 47, 64
1, 2880, Note_on_c, 3, 45, 64
1, 2972, Note_on_c, 2, 47, 0
1, 2972, Note_on_c, 3, 45, 0
1, 2976, Note_on_c, 2, 48, 64
1, 2976, Note_on_c, 3, 57, 64
1, 3068, Note_on_c, 0, 57, 0
1, 3068, Note_on_c, 1, 69, 0
1, 3068, Note_on_c, 2, 64, 0
1, 3068, Note_on_c, 3, 48, 0
1, 3072, Note_on_c, 0, 50, 64
1, 3072, Note_on_c, 1, 38, 64
1, 3164, Note_on_c, 0, 50, 0
1, 3164, Note_on_c, 1, 38, 0
1, 3168, Note_on_c, 0, 69, 64
1, 3168, Note_on_c, 1, 74, 64
1, 3168, Note_on_c, 2, 50, 64
1, 3260, Note_on_c, 2, 50, 0
1, 3264, Note_on_c, 2, 38, 64
1, 3356, Note_on_c, 0, 74, 0
1, 3356, Note_on_c, 1, 38, 0
1, 3356, Note_on_c, 2, 69, 0
1, 3360, Note_on_c, 0, 74, 64
1, 3360, Note_on_c, 1, 50, 64
1, 3360, Note_on_c, 2, 77, 64
1, 3452, Note_on_c, 0, 50, 0
1, 3452, Note_on_c, 1, 74, 0
1, 3452, Note_on_c, 2, 77, 0
1, 3456, Note_on_c, 0, 38, 64
1, 3456, Note_on_c, 1, 81, 64
1, 3456, Note_on_c, 2, 77, 64
1, 3548, Note_on_c, 0, 38, 0
1, 3552, Note_on_c, 0, 50, 64
1, 3644, Note_on_c, 0, 50, 0
1, 3644, Note_on_c, 1, 77, 0
1, 3644, Note_on_c, 2, 81, 0
1, 3648, Note_on_c, 0, 38, 64
1, 3648, Note_on_c, 1, 79, 64
1, 3648, Note_on_c, 2, 76, 64
1, 3740, Note_on_c, 0, 79, 0
1, 3740, Note_on_c, 1, 76, 0
1, 3740, Note_on_c, 2, 38, 0
1, 3744, Note_on_c, 0, 50, 64
1, 3744, Note_on_c, 1, 74, 64
1, 3744, Note_on_c, 2, 77, 64
1, 3836, Note_on_c, 0, 50, 0
1, 3836, Note_on_c, 1, 74, 0
1, 3836, Note_on_c, 2, 77, 0
1, 3840, Note_on_c, 0, 45, 64
1, 3840, Note_on_c, 1, 76, 64
1, 3840, Note_on_c, 2, 72, 64
1, 3932, Note_on_c, 0, 45, 0
1, 3936, Note_on_c, 0, 57, 64
1, 4028, Note_on_c, 0, 57, 0
1, 4032, Note_on_c, 0, 45, 64
1, 4124, Note_on_c, 0, 72, 0
1, 4124, Note_on_c, 1, 45, 0
1, 4124, Note_on_c, 2, 76, 0
1, 4128, Note_on_c, 0, 69, 64
1, 4128, Note_on_c, 1, 57, 64
1, 4128, Note_on_c, 2, 72, 64
1, 4220, Note_on_c, 0, 69, 0
1, 4220, Note_on_c, 1, 72, 0
1, 4220, Note_on_c, 2, 57, 0
1, 4224, Note_on_c, 0, 69, 64
1, 4224, Note_on_c, 1, 76, 64
1, 4224, Note_on_c, 2, 45, 64
1, 4316, Note_on_c, 2, 45, 0
1, 4320, Note_on_c, 2, 57, 64
1, 4412, Note_on_c, 0, 76, 0
1, 4412, Note_on_c, 1, 69, 0
1, 4412, Note_on_c, 2, 57, 0
1, 4416, Note_on_c, 0, 45, 64
1, 4416, Note_on_c, 1, 71, 64
1, 4416, Note_on_c, 2, 74, 64
1, 4508, Note_on_c, 0, 45, 0
1, 4508, Note_on_c, 1, 74, 0
1, 4508, Note_on_c, 2, 71, 0
1, 4512, Note_on_c, 0, 57, 64
1, 4512, Note_on_c, 1, 72, 64
1, 4512, Note_on_c, 2, 69, 64
1, 4604, Note_on_c, 0, 72, 0
1, 4604, Note_on_c, 1, 57, 0
1, 4604, Note_on_c, 2, 69, 0
1, 4608, Note_on_c, 0, 44, 64
1, 4608, Note_on_c, 1, 71, 64
1, 4608, Note_on_c, 2, 68, 64
1, 4700, Note_on_c, 0, 44, 0
1, 4704, Note_on_c, 0, 56, 64
1, 4796, Note_on_c, 0, 56, 0
1, 4796, Note_on_c, 1, 71, 0
1, 4796, Note_on_c, 2, 68, 0
1, 4800, Note_on_c, 0, 44, 64
1, 4800, Note_on_c, 1, 68, 64
1, 4800, Note_on_c, 2, 71, 64
1, 4892, Note_on_c, 0, 44, 0
1, 4892, Note_on_c, 1, 71, 0
1, 4892, Note_on_c, 2, 68, 0
1, 4896, Note_on_c, 0, 72, 64
1, 4896, Note_on_c, 1, 69, 64
1, 4896, Note_on_c, 2, 56, 64
1, 4988, Note_on_c, 0, 69, 0
1, 4988, Note_on_c, 1, 56, 0
1, 4988, Note_on_c, 2, 72, 0
1, 4992, Note_on_c, 0, 74, 64
1, 4992, Note_on_c, 1, 71, 64
1, 4992, Note_on_c, 2, 40, 64
1, 5084, Note_on_c, 2, 40, 0
1, 5088, Note_on_c, 2, 52, 64
1, 5180, Note_on_c, 0, 52, 0
1, 5180, Note_on_c, 1, 74, 0
1, 5180, Note_on_c, 2, 71, 0
1, 5184, Note_on_c, 0, 76, 64
1, 5184, Note_on_c, 1, 40, 64
1, 5184, Note_on_c, 2, 71, 64
1, 5276, Note_on_c, 1, 40, 0
1, 5280, Note_on_c, 1, 52, 64
1, 5372, Note_on_c, 0, 52, 0
1, 5372, Note_on_c, 1, 76, 0
1, 5372, Note_on_c, 2, 71, 0
1, 5376, Note_on_c, 0, 69, 64
1, 5376, Note_on_c, 1, 72, 64
1, 5376, Note_on_c, 2, 45, 64
1, 5468, Note_on_c, 2, 45, 0
1, 5472, Note_on_c, 2, 57, 64
1, 5564, Note_on_c, 0, 57, 0
1, 5564, Note_on_c, 1, 69, 0
1, 5564, Note_on_c, 2, 72, 0
1, 5568, Note_on_c, 0, 45, 64
1, 5568, Note_on_c, 1, 69, 64
1, 5568, Note_on_c, 2, 64, 64
1, 5660, Note_on_c, 0, 45, 0
1, 5664, Note_on_c, 0, 57, 64
1, 5756, Note_on_c, 0, 69, 0
1, 5756, Note_on_c, 1, 57, 0
1, 5756, Note_on_c, 2, 64, 0
1, 5760, Note_on_c, 0, 69, 64
1, 5760, Note_on_c, 1, 64, 64
1, 5760, Note_on_c, 2, 45, 64
1, 5852, Note_on_c, 2, 45, 0
1, 5856, Note_on_c, 2, 57, 64
1, 5948, Note_on_c, 2, 57, 0
1, 5952, Note_on_c, 2, 45, 64
1, 6044, Note_on_c, 2, 45, 0
1, 6048, Note_on_c, 2, 57, 64
1, 6140, Note_on_c, 0, 64, 0
1, 6140, Note_on_c, 1, 69, 0
1, 6140, Note_on_c, 2, 57, 0
1, 6144, Note_on_c, 0, 71, 64
1, 6144, Note_on_c, 1, 40, 64
1, 6144, Note_on_c, 2, 76, 64
1, 6236, Note_on_c, 1, 40, 0
1, 6240, Note_on_c, 1, 52, 64
1, 6332, Note_on_c, 0, 76, 0
1, 6332, Note_on_c, 1, 52, 0
1, 6332, Note_on_c, 2, 71, 0
1, 6336, Note_on_c, 0, 40, 64
1, 6336, Note_on_c, 1, 68, 64
1, 6336, Note_on_c, 2, 71, 64
1, 6428, Note_on_c, 0, 40, 0
1, 6428, Note_on_c, 1, 68, 0
1, 6428, Note_on_c, 2, 71, 0
1, 6432, Note_on_c, 0, 72, 64
1, 6432, Note_on_c, 1, 69, 64
1, 6432, Note_on_c, 2, 52, 64
1, 6524, Note_on_c, 0, 52, 0
1, 6524, Note_on_c, 1, 69, 0
1, 6524, Note_on_c, 2, 72, 0
1, 6528, Note_on_c, 0, 71, 64
1, 6528, Note_on_c, 1, 74, 64
1, 6528, Note_on_c, 2, 40, 64
1, 6620, Note_on_c, 0, 71, 0
1, 6620, Note_on_c, 1, 74, 0
1, 6620, Note_on_c, 2, 40, 0
1, 6624, Note_on_c, 0, 68, 64
1, 6624, Note_on_c, 1, 76, 64
1, 6624, Note_on_c, 2, 52, 64
1, 6668, Note_on_c, 1, 76, 0
1, 6672, Note_on_c, 1, 74, 64
1, 6716, Note_on_c, 0, 52, 0
1, 6716, Note_on_c, 1, 68, 0
1, 6716, Note_on_c, 2, 74, 0
1, 6720, Note_on_c, 0, 72, 64
1, 6720, Note_on_c, 1, 40, 64
1, 6720, Note_on_c, 2, 69, 64
1, 6812, Note_on_c, 0, 69, 0
1, 6812, Note_on_c, 1, 72, 0
1, 6812, Note_on_c, 2, 40, 0
1, 6816, Note_on_c, 0, 52, 64
1, 6816, Note_on_c, 1, 68, 64
1, 6816, Note_on_c, 2, 71, 64
1, 6908, Note_on_c, 0, 71, 0
1, 6908, Note_on_c, 1, 52, 0
1, 6908, Note_on_c, 2, 68, 0
1, 6912, Note_on_c, 0, 69, 64
1, 6912, Note_on_c, 1, 45, 64
1, 6912, Note_on_c, 2, 64, 64
1, 7004, Note_on_c, 1, 45, 0
1, 7008, Note_on_c, 1, 57, 64
1, 7100, Note_on_c, 0, 64, 0
1, 7100, Note_on_c, 1, 69, 0
1, 7100, Note_on_c, 2, 57, 0
1, 7104, Note_on_c, 0, 69, 64
1, 7104, Note_on_c, 1, 45, 64
1, 7104, Note_on_c, 2, 64, 64
1, 7196, Note_on_c, 0, 45, 0
1, 7196, Note_on_c, 1, 69, 0
1, 7196, Note_on_c, 2, 64, 0
1, 7200, Note_on_c, 0, 72, 64
1, 7200, Note_on_c, 1, 69, 64
1, 7200, Note_on_c, 2, 57, 64
1, 7292, Note_on_c, 0, 57, 0
1, 7292, Note_on_c, 1, 72, 0
1, 7292, Note_on_c, 2, 69, 0
1, 7296, Note_on_c, 0, 45, 64
1, 7296, Note_on_c, 1, 76, 64
1, 7296, Note_on_c, 2, 72, 64
1, 7388, Note_on_c, 0, 45, 0
1, 7392, Note_on_c, 0, 57, 64
1, 7484, Note_on_c, 0, 72, 0
1, 7484, Note_on_c, 1, 76, 0
1, 7484, Note_on_c, 2, 57, 0
1, 7488, Note_on_c, 0, 45, 64
1, 7488, Note_on_c, 1, 71, 64
1, 7488, Note_on_c, 2, 74, 64
1, 7580, Note_on_c, 0, 45, 0
1, 7580, Note_on_c, 1, 71, 0
1, 7580, Note_on_c, 2, 74, 0
1, 7584, Note_on_c, 0, 69, 64
1, 7584, Note_on_c, 1, 72, 64
1, 7584, Note_on_c, 2, 57, 64
1, 7676, Note_on_c, 0, 57, 0
1, 7676, Note_on_c, 1, 69, 0
1, 7676, Note_on_c, 2, 72, 0
1, 7680, Note_on_c, 0, 68, 64
1, 7680, Note_on_c, 1, 71, 64
1, 7680, Note_on_c, 2, 44, 64
1, 7772, Note_on_c, 2, 44, 0
1, 7776, Note_on_c, 2, 56, 64
1, 7868, Note_on_c, 0, 68, 0
1, 7868, Note_on_c, 1, 71, 0
1, 7868, Note_on_c, 2, 56, 0
1, 7872, Note_on_c, 0, 71, 64
1, 7872, Note_on_c, 1, 44, 64
1, 7872, Note_on_c, 2, 68, 64
1, 7964, Note_on_c, 0, 68, 0
1, 7964, Note_on_c, 1, 44, 0
1, 7964, Note_on_c, 2, 71, 0
1, 7968, Note_on_c, 0, 72, 64
1, 7968, Note_on_c, 1, 69, 64
1, 7968, Note_on_c, 2, 56, 64
1, 8060, Note_on_c, 0, 72, 0
1, 8060, Note_on_c, 1, 69, 0
1, 8060, Note_on_c, 2, 56, 0
1, 8064, Note_on_c, 0, 74, 64
1, 8064, Note_on_c, 1, 71, 64
1, 8064, Note_on_c, 2, 40, 64
1, 8156, Note_on_c, 2, 40, 0
1, 8160, Note_on_c, 2, 52, 64
1, 8252, Note_on_c, 0, 71, 0
1, 8252, Note_on_c, 1, 74, 0
1, 8252, Note_on_c, 2, 52, 0
1, 8256, Note_on_c, 0, 76, 64
1, 8256, Note_on_c, 1, 40, 64
1, 8256, Note_on_c, 2, 71, 64
1, 8348, Note_on_c, 1, 40, 0
1, 8352, Note_on_c, 1, 52, 64
1, 8444, Note_on_c, 0, 71, 0
1, 8444, Note_on_c, 1, 76, 0
1, 8444, Note_on_c, 2, 52, 0
1, 8448, Note_on_c, 0, 72, 64
1, 8448, Note_on_c, 1, 69, 64
1, 8448, Note_on_c, 2, 45, 64
1, 8540, Note_on_c, 2, 45, 0
1, 8544, Note_on_c, 2, 57, 64
1, 8636, Note_on_c, 0, 57, 0
1, 8636, Note_on_c, 1, 69, 0
1, 8636, Note_on_c, 2, 72, 0
1, 8640, Note_on_c, 0, 69, 64
1, 8640, Note_on_c, 1, 45, 64
1, 8640, Note_on_c, 2, 64, 64
1, 8732, Note_on_c, 1, 45, 0
1, 8736, Note_on_c, 1, 57, 64
1, 8828, Note_on_c, 0, 57, 0
1, 8828, Note_on_c, 1, 64, 0
1, 8828, Note_on_c, 2, 69, 0
1, 8832, Note_on_c, 0, 45, 64
1, 8832, Note_on_c, 1, 64, 64
1, 8832, Note_on_c, 2, 69, 64
1, 8924, Note_on_c, 0, 45, 0
1, 8928, Note_on_c, 0, 57, 64
1, 9020, Note_on_c, 0, 57, 0
1, 9024, Note_on_c, 0, 47, 64
1, 9024, Note_on_c, 3, 45, 64
1, 9116, Note_on_c, 3, 45, 0
1, 9116, Note_on_c, 0, 47, 0
1, 9120, Note_on_c, 0, 57, 64
1, 9120, Note_on_c, 3, 48, 64
1, 9212, Note_on_c, 0, 64, 0
1, 9212, Note_on_c, 1, 57, 0
1, 9212, Note_on_c, 2, 69, 0
1, 9212, Note_on_c, 3, 48, 0
1, 9216, Note_on_c, 0, 50, 64
1, 9216, Note_on_c, 1, 38, 64
1, 9308, Note_on_c, 0, 38, 0
1, 9308, Note_on_c, 1, 50, 0
1, 9312, Note_on_c, 0, 69, 64
1, 9312, Note_on_c, 1, 50, 64
1, 9312, Note_on_c, 2, 74, 64
1, 9404, Note_on_c, 1, 50, 0
1, 9408, Note_on_c, 1, 38, 64
1, 9500, Note_on_c, 0, 74, 0
1, 9500, Note_on_c, 1, 69, 0
1, 9500, Note_on_c, 2, 38, 0
1, 9504, Note_on_c, 0, 50, 64
1, 9504, Note_on_c, 1, 74, 64
1, 9504, Note_on_c, 2, 77, 64
1, 9596, Note_on_c, 0, 74, 0
1, 9596, Note_on_c, 1, 50, 0
1, 9596, Note_on_c, 2, 77, 0
1, 9600, Note_on_c, 0, 77, 64
1, 9600, Note_on_c, 1, 38, 64
1, 9600, Note_on_c, 2, 81, 64
1, 9692, Note_on_c, 1, 38, 0
1, 9696, Note_on_c, 1, 50, 64
1, 9788, Note_on_c, 0, 77, 0
1, 9788, Note_on_c, 1, 50, 0
1, 9788, Note_on_c, 2, 81, 0
1, 9792, Note_on_c, 0, 79, 64
1, 9792, Note_on_c, 1, 38, 64
1, 9792, Note_on_c, 2, 76, 64
1, 9884, Note_on_c, 0, 79, 0
1, 9884, Note_on_c, 1, 76, 0
1, 9884, Note_on_c, 2, 38, 0
1, 9888, Note_on_c, 0, 74, 64
1, 9888, Note_on_c, 1, 77, 64
1, 9888, Note_on_c, 2, 50, 64
1, 9980, Note_on_c, 0, 74, 0
1, 9980, Note_on_c, 1, 77, 0
1, 9980, Note_on_c, 2, 50, 0
1, 9984, Note_on_c, 0, 45, 64
1, 9984, Note_on_c, 1, 76, 64
1, 9984, Note_on_c, 2, 72, 64
1, 10076, Note_on_c, 0, 45, 0
1, 10080, Note_on_c, 0, 57, 64
1, 10172, Note_on_c, 0, 57, 0
1, 10176, Note_on_c, 0, 45, 64
1, 10268, Note_on_c, 0, 45, 0
1, 10268, Note_on_c, 1, 76, 0
1, 10268, Note_on_c, 2, 72, 0
1, 10272, Note_on_c, 0, 57, 64
1, 10272, Note_on_c, 1, 72, 64
1, 10272, Note_on_c, 2, 69, 64
1, 10364, Note_on_c, 0, 72, 0
1, 10364, Note_on_c, 1, 69, 0
1, 10364, Note_on_c, 2, 57, 0
1, 10368, Note_on_c, 0, 76, 64
1, 10368, Note_on_c, 1, 69, 64
1, 10368, Note_on_c, 2, 45, 64
1, 10460, Note_on_c, 2, 45, 0
1, 10464, Note_on_c, 2, 57, 64
1, 10556, Note_on_c, 0, 76, 0
1, 10556, Note_on_c, 1, 57, 0
1, 10556, Note_on_c, 2, 69, 0
1, 10560, Note_on_c, 0, 71, 64
1, 10560, Note_on_c, 1, 45, 64
1, 10560, Note_on_c, 2, 74, 64
1, 10652, Note_on_c, 0, 74, 0
1, 10652, Note_on_c, 1, 45, 0
1, 10652, Note_on_c, 2, 71, 0
1, 10656, Note_on_c, 0, 72, 64
1, 10656, Note_on_c, 1, 57, 64
1, 10656, Note_on_c, 2, 69, 64
1, 10748, Note_on_c, 0, 72, 0
1, 10748, Note_on_c, 1, 69, 0
1, 10748, Note_on_c, 2, 57, 0
1, 10752, Note_on_c, 0, 71, 64
1, 10752, Note_on_c, 1, 68, 64
1, 10752, Note_on_c, 2, 44, 64
1, 10844, Note_on_c, 2, 44, 0
1, 10848, Note_on_c, 2, 56, 64
1, 10940, Note_on_c, 0, 56, 0
1, 10940, Note_on_c, 1, 68, 0
1, 10940, Note_on_c, 2, 71, 0
1, 10944, Note_on_c, 0, 71, 64
1, 10944, Note_on_c, 1, 68, 64
1, 10944, Note_on_c, 2, 44, 64
1, 11036, Note_on_c, 0, 44, 0
1, 11036, Note_on_c, 1, 71, 0
1, 11036, Note_on_c, 2, 68, 0
1, 11040, Note_on_c, 0, 56, 64
1, 11040, Note_on_c, 1, 72, 64
1, 11040, Note_on_c, 2, 69, 64
1, 11132, Note_on_c, 0, 69, 0
1, 11132, Note_on_c, 1, 56, 0
1, 11132, Note_on_c, 2, 72, 0
1, 11136, Note_on_c, 0, 71, 64
1, 11136, Note_on_c, 1, 74, 64
1, 11136, Note_on_c, 2, 40, 64
1, 11228, Note_on_c, 2, 40, 0
1, 11232, Note_on_c, 2, 52, 64
1, 11324, Note_on_c, 0, 71, 0
1, 11324, Note_on_c, 1, 52, 0
1, 11324, Note_on_c, 2, 74, 0
1, 11328, Note_on_c, 0, 40, 64
1, 11328, Note_on_c, 1, 76, 64
1, 11328, Note_on_c, 2, 71, 64
1, 11420, Note_on_c, 0, 40, 0
1, 11424, Note_on_c, 0, 52, 64
1, 11516, Note_on_c, 0, 52, 0
1, 11516, Note_on_c, 1, 76, 0
1, 11516, Note_on_c, 2, 71, 0
1, 11520, Note_on_c, 0, 45, 64
1, 11520, Note_on_c, 1, 69, 64
1, 11520, Note_on_c, 2, 72, 64
1, 11612, Note_on_c, 0, 45, 0
1, 11616, Note_on_c, 0, 57, 64
1, 11708, Note_on_c, 0, 69, 0
1, 11708, Note_on_c, 1, 72, 0
1, 11708, Note_on_c, 2, 57, 0
1, 11712, Note_on_c, 0, 69, 64
1, 11712, Note_on_c, 1, 45, 64
1, 11712, Note_on_c, 2, 64, 64
1, 11804, Note_on_c, 1, 45, 0
1, 11808, Note_on_c, 1, 57, 64
1, 11900, Note_on_c, 0, 69, 0
1, 11900, Note_on_c, 1, 57, 0
1, 11900, Note_on_c, 2, 64, 0
1, 11904, Note_on_c, 0, 45, 64
1, 11904, Note_on_c, 1, 69, 64
1, 11904, Note_on_c, 2, 64, 64
1, 11996, Note_on_c, 0, 45, 0
1, 12000, Note_on_c, 0, 57, 64
1, 12092, Note_on_c, 0, 57, 0
1, 12096, Note_on_c, 0, 45, 64
1, 12188, Note_on_c, 0, 45, 0
1, 12192, Note_on_c, 0, 57, 64
1, 12284, Note_on_c, 0, 57, 0
1, 12284, Note_on_c, 1, 69, 0
1, 12284, Note_on_c, 2, 64, 0
1, 12288, Note_on_c, 0, 45, 64
1, 12288, Note_on_c, 1, 60, 64
1, 12288, Note_on_c, 2, 64, 64
1, 12380, Note_on_c, 0, 45, 0
1, 12384, Note_on_c, 0, 52, 64
1, 12476, Note_on_c, 0, 52, 0
1, 12480, Note_on_c, 0, 45, 64
1, 12572, Note_on_c, 0, 45, 0
1, 12576, Note_on_c, 0, 52, 64
1, 12668, Note_on_c, 0, 60, 0
1, 12668, Note_on_c, 1, 64, 0
1, 12668, Note_on_c, 2, 52, 0
1, 12672, Note_on_c, 0, 60, 64
1, 12672, Note_on_c, 1, 45, 64
1, 12672, Note_on_c, 2, 57, 64
1, 12764, Note_on_c, 1, 45, 0
1, 12768, Note_on_c, 1, 52, 64
1, 12860, Note_on_c, 1, 52, 0
1, 12864, Note_on_c, 1, 45, 64
1, 12956, Note_on_c, 1, 45, 0
1, 12960, Note_on_c, 1, 52, 64
1, 13052, Note_on_c, 0, 60, 0
1, 13052, Note_on_c, 1, 57, 0
1, 13052, Note_on_c, 2, 52, 0
1, 13056, Note_on_c, 0, 62, 64
1, 13056, Note_on_c, 1, 44, 64
1, 13056, Note_on_c, 2, 56, 64
1, 13148, Note_on_c, 1, 44, 0
1, 13152, Note_on_c, 1, 52, 64
1, 13244, Note_on_c, 1, 52, 0
1, 13248, Note_on_c, 1, 44, 64
1, 13340, Note_on_c, 1, 44, 0
1, 13344, Note_on_c, 1, 52, 64
1, 13436, Note_on_c, 0, 62, 0
1, 13436, Note_on_c, 1, 56, 0
1, 13436, Note_on_c, 2, 52, 0
1, 13440, Note_on_c, 0, 59, 64
1, 13440, Note_on_c, 1, 56, 64
1, 13440, Note_on_c, 2, 44, 64
1, 13532, Note_on_c, 2, 44, 0
1, 13536, Note_on_c, 2, 52, 64
1, 13628, Note_on_c, 2, 52, 0
1, 13632, Note_on_c, 2, 44, 64
1, 13724, Note_on_c, 2, 44, 0
1, 13728, Note_on_c, 2, 52, 64
1, 13820, Note_on_c, 0, 56, 0
1, 13820, Note_on_c, 1, 59, 0
1, 13820, Note_on_c, 2, 52, 0
1, 13824, Note_on_c, 0, 45, 64
1, 13824, Note_on_c, 1, 57, 64
1, 13824, Note_on_c, 2, 60, 64
1, 13916, Note_on_c, 0, 45, 0
1, 13920, Note_on_c, 0, 52, 64
1, 14012, Note_on_c, 0, 52, 0
1, 14016, Note_on_c, 0, 45, 64
1, 14108, Note_on_c, 0, 45, 0
1, 14112, Note_on_c, 0, 52, 64
1, 14204, Note_on_c, 0, 60, 0
1, 14204, Note_on_c, 1, 52, 0
1, 14204, Note_on_c, 2, 57, 0
1, 14208, Note_on_c, 0, 57, 64
1, 14208, Note_on_c, 1, 45, 64
1, 14300, Note_on_c, 1, 45, 0
1, 14304, Note_on_c, 1, 52, 64
1, 14396, Note_on_c, 1, 52, 0
1, 14400, Note_on_c, 1, 45, 64
1, 14492, Note_on_c, 1, 45, 0
1, 14496, Note_on_c, 1, 52, 64
1, 14588, Note_on_c, 1, 52, 0
1, 14588, Note_on_c, 0, 57, 0
1, 14592, Note_on_c, 0, 56, 64
1, 14592, Note_on_c, 1, 44, 64
1, 14684, Note_on_c, 1, 44, 0
1, 14688, Note_on_c, 1, 52, 64
1, 14780, Note_on_c, 1, 52, 0
1, 14784, Note_on_c, 1, 44, 64
1, 14876, Note_on_c, 1, 44, 0
1, 14880, Note_on_c, 1, 52, 64
1, 14972, Note_on_c, 1, 52, 0
1, 14976, Note_on_c, 1, 44, 64
1, 15068, Note_on_c, 1, 44, 0
1, 15072, Note_on_c, 1, 52, 64
1, 15164, Note_on_c, 1, 52, 0
1, 15168, Note_on_c, 1, 44, 64
1, 15260, Note_on_c, 1, 44, 0
1, 15264, Note_on_c, 1, 52, 64
1, 15356, Note_on_c, 1, 56, 0
1, 15356, Note_on_c, 0, 52, 0
1, 15360, Note_on_c, 0, 64, 64
1, 15360, Note_on_c, 1, 45, 64
1, 15360, Note_on_c, 2, 60, 64
1, 15452, Note_on_c, 1, 45, 0
1, 15456, Note_on_c, 1, 52, 64
1, 15548, Note_on_c, 1, 52, 0
1, 15552, Note_on_c, 1, 45, 64
1, 15644, Note_on_c, 1, 45, 0
1, 15648, Note_on_c, 1, 52, 64
1, 15740, Note_on_c, 0, 60, 0
1, 15740, Note_on_c, 1, 64, 0
1, 15740, Note_on_c, 2, 52, 0
1, 15744, Note_on_c, 0, 57, 64
1, 15744, Note_on_c, 1, 45, 64
1, 15744, Note_on_c, 2, 60, 64
1, 15836, Note_on_c, 1, 45, 0
1, 15840, Note_on_c, 1, 52, 64
1, 15932, Note_on_c, 1, 52, 0
1, 15936, Note_on_c, 1, 45, 64
1, 16028, Note_on_c, 1, 45, 0
1, 16032, Note_on_c, 1, 52, 64
1, 16124, Note_on_c, 0, 60, 0
1, 16124, Note_on_c, 1, 57, 0
1, 16124, Note_on_c, 2, 52, 0
1, 16128, Note_on_c, 0, 56, 64
1, 16128, Note_on_c, 1, 62, 64
1, 16128, Note_on_c, 2, 44, 64
1, 16220, Note_on_c, 2, 44, 0
1, 16224, Note_on_c, 2, 52, 64
1, 16316, Note_on_c, 2, 52, 0
1, 16320, Note_on_c, 2, 44, 64
1, 16412, Note_on_c, 2, 44, 0
1, 16416, Note_on_c, 2, 52, 64
1, 16508, Note_on_c, 0, 52, 0
1, 16508, Note_on_c, 1, 62, 0
1, 16508, Note_on_c, 2, 56, 0
1, 16512, Note_on_c, 0, 44, 64
1, 16512, Note_on_c, 1, 59, 64
1, 16512, Note_on_c, 2, 56, 64
1, 16604, Note_on_c, 0, 44, 0
1, 16608, Note_on_c, 0, 52, 64
1, 16700, Note_on_c, 0, 52, 0
1, 16704, Note_on_c, 0, 44, 64
1, 16796, Note_on_c, 0, 44, 0
1, 16800, Note_on_c, 0, 52, 64
1, 16892, Note_on_c, 0, 52, 0
1, 16892, Note_on_c, 1, 59, 0
1, 16892, Note_on_c, 2, 56, 0
1, 16896, Note_on_c, 0, 60, 64
1, 16896, Note_on_c, 1, 57, 64
1, 16896, Note_on_c, 2, 45, 64
1, 16988, Note_on_c, 2, 45, 0
1, 16992, Note_on_c, 2, 52, 64
1, 17084, Note_on_c, 0, 57, 0
1, 17084, Note_on_c, 1, 60, 0
1, 17084, Note_on_c, 2, 52, 0
1, 17088, Note_on_c, 0, 45, 64
1, 17088, Note_on_c, 1, 60, 64
1, 17088, Note_on_c, 2, 64, 64
1, 17180, Note_on_c, 0, 45, 0
1, 17184, Note_on_c, 0, 52, 64
1, 17276, Note_on_c, 0, 52, 0
1, 17276, Note_on_c, 1, 60, 0
1, 17276, Note_on_c, 2, 64, 0
1, 17280, Note_on_c, 0, 69, 64
1, 17280, Note_on_c, 1, 64, 64
1, 17280, Note_on_c, 2, 45, 64
1, 17372, Note_on_c, 2, 45, 0
1, 17376, Note_on_c, 2, 52, 64
1, 17468, Note_on_c, 2, 52, 0
1, 17472, Note_on_c, 2, 45, 64
1, 17564, Note_on_c, 2, 45, 0
1, 17568, Note_on_c, 2, 52, 64
1, 17660, Note_on_c, 0, 64, 0
1, 17660, Note_on_c, 1, 69, 0
1, 17660, Note_on_c, 2, 52, 0
1, 17664, Note_on_c, 0, 68, 64
1, 17664, Note_on_c, 1, 44, 64
1, 17664, Note_on_c, 2, 64, 64
1, 17756, Note_on_c, 1, 44, 0
1, 17760, Note_on_c, 1, 52, 64
1, 17852, Note_on_c, 1, 52, 0
1, 17856, Note_on_c, 1, 44, 64
1, 17948, Note_on_c, 1, 44, 0
1, 17952, Note_on_c, 1, 52, 64
1, 18044, Note_on_c, 1, 52, 0
1, 18048, Note_on_c, 1, 44, 64
1, 18140, Note_on_c, 1, 44, 0
1, 18144, Note_on_c, 1, 52, 64
1, 18236, Note_on_c, 1, 52, 0
1, 18240, Note_on_c, 1, 44, 64
1, 18332, Note_on_c, 1, 44, 0
1, 18336, Note_on_c, 1, 52, 64
1, 18428, Note_on_c, 0, 52, 0
1, 18428, Note_on_c, 1, 68, 0
1, 18428, Note_on_c, 2, 64, 0
1, 18432, Note_on_c, 0, 40, 64
1, 18432, Note_on_c, 1, 71, 64
1, 18432, Note_on_c, 2, 76, 64
1, 18524, Note_on_c, 0, 40, 0
1, 18528, Note_on_c, 0, 52, 64
1, 18620, Note_on_c, 0, 76, 0
1, 18620, Note_on_c, 1, 52, 0
1, 18620, Note_on_c, 2, 71, 0
1, 18624, Note_on_c, 0, 71, 64
1, 18624, Note_on_c, 1, 40, 64
1, 18624, Note_on_c, 2, 68, 64
1, 18716, Note_on_c, 0, 71, 0
1, 18716, Note_on_c, 1, 68, 0
1, 18716, Note_on_c, 2, 40, 0
1, 18720, Note_on_c, 0, 72, 64
1, 18720, Note_on_c, 1, 69, 64
1, 18720, Note_on_c, 2, 52, 64
1, 18812, Note_on_c, 0, 72, 0
1, 18812, Note_on_c, 1, 52, 0
1, 18812, Note_on_c, 2, 69, 0
1, 18816, Note_on_c, 0, 74, 64
1, 18816, Note_on_c, 1, 71, 64
1, 18816, Note_on_c, 2, 40, 64
1, 18908, Note_on_c, 0, 74, 0
1, 18908, Note_on_c, 1, 40, 0
1, 18908, Note_on_c, 2, 71, 0
1, 18912, Note_on_c, 0, 76, 64
1, 18912, Note_on_c, 1, 52, 64
1, 18912, Note_on_c, 2, 68, 64
1, 18956, Note_on_c, 0, 76, 0
1, 18960, Note_on_c, 0, 74, 64
1, 19004, Note_on_c, 0, 68, 0
1, 19004, Note_on_c, 1, 52, 0
1, 19004, Note_on_c, 2, 74, 0
1, 19008, Note_on_c, 0, 69, 64
1, 19008, Note_on_c, 1, 40, 64
1, 19008, Note_on_c, 2, 72, 64
1, 19100, Note_on_c, 0, 69, 0
1, 19100, Note_on_c, 1, 72, 0
1, 19100, Note_on_c, 2, 40, 0
1, 19104, Note_on_c, 0, 52, 64
1, 19104, Note_on_c, 1, 71, 64
1, 19104, Note_on_c, 2, 68, 64
1, 19196, Note_on_c, 0, 68, 0
1, 19196, Note_on_c, 1, 52, 0
1, 19196, Note_on_c, 2, 71, 0
1, 19200, Note_on_c, 0, 45, 64
1, 19200, Note_on_c, 1, 64, 64
1, 19200, Note_on_c, 2, 69, 64
1, 19292, Note_on_c, 0, 45, 0
1, 19296, Note_on_c, 0, 57, 64
1, 19388, Note_on_c, 0, 69, 0
1, 19388, Note_on_c, 1, 57, 0
1, 19388, Note_on_c, 2, 64, 0
1, 19392, Note_on_c, 0, 64, 64
1, 19392, Note_on_c, 1, 69, 64
1, 19392, Note_on_c, 2, 45, 64
1, 19484, Note_on_c, 0, 64, 0
1, 19484, Note_on_c, 1, 69, 0
1, 19484, Note_on_c, 2, 45, 0
1, 19488, Note_on_c, 0, 69, 64
1, 19488, Note_on_c, 1, 72, 64
1, 19488, Note_on_c, 2, 57, 64
1, 19580, Note_on_c, 0, 57, 0
1, 19580, Note_on_c, 1, 72, 0
1, 19580, Note_on_c, 2, 69, 0
1, 19584, Note_on_c, 0, 76, 64
1, 19584, Note_on_c, 1, 45, 64
1, 19584, Note_on_c, 2, 72, 64
1, 19676, Note_on_c, 1, 45, 0
1, 19680, Note_on_c, 1, 57, 64
1, 19772, Note_on_c, 0, 57, 0
1, 19772, Note_on_c, 1, 76, 0
1, 19772, Note_on_c, 2, 72, 0
1, 19776, Note_on_c, 0, 74, 64
1, 19776, Note_on_c, 1, 45, 64
1, 19776, Note_on_c, 2, 71, 64
1, 19868, Note_on_c, 0, 74, 0
1, 19868, Note_on_c, 1, 71, 0
1, 19868, Note_on_c, 2, 45, 0
1, 19872, Note_on_c, 0, 57, 64
1, 19872, Note_on_c, 1, 69, 64
1, 19872, Note_on_c, 2, 72, 64
1, 19964, Note_on_c, 0, 72, 0
1, 19964, Note_on_c, 1, 57, 0
1, 19964, Note_on_c, 2, 69, 0
1, 19968, Note_on_c, 0, 44, 64
1, 19968, Note_on_c, 1, 71, 64
1, 19968, Note_on_c, 2, 68, 64
1, 20060, Note_on_c, 0, 44, 0
1, 20064, Note_on_c, 0, 56, 64
1, 20156, Note_on_c, 0, 68, 0
1, 20156, Note_on_c, 1, 56, 0
1, 20156, Note_on_c, 2, 71, 0
1, 20160, Note_on_c, 0, 68, 64
1, 20160, Note_on_c, 1, 44, 64
1, 20160, Note_on_c, 2, 71, 64
1, 20252, Note_on_c, 0, 68, 0
1, 20252, Note_on_c, 1, 44, 0
1, 20252, Note_on_c, 2, 71, 0
1, 20256, Note_on_c, 0, 56, 64
1, 20256, Note_on_c, 1, 72, 64
1, 20256, Note_on_c, 2, 69, 64
1, 20348, Note_on_c, 0, 56, 0
1, 20348, Note_on_c, 1, 69, 0
1, 20348, Note_on_c, 2, 72, 0
1, 20352, Note_on_c, 0, 74, 64
1, 20352, Note_on_c, 1, 40, 64
1, 20352, Note_on_c, 2, 71, 64
1, 20444, Note_on_c, 1, 40, 0
1, 20448, Note_on_c, 1, 52, 64
1, 20540, Note_on_c, 0, 74, 0
1, 20540, Note_on_c, 1, 52, 0
1, 20540, Note_on_c, 2, 71, 0
1, 20544, Note_on_c, 0, 76, 64
1, 20544, Note_on_c, 1, 71, 64
1, 20544, Note_on_c, 2, 40, 64
1, 20636, Note_on_c, 2, 40, 0
1, 20640, Note_on_c, 2, 52, 64
1, 20732, Note_on_c, 0, 52, 0
1, 20732, Note_on_c, 1, 71, 0
1, 20732, Note_on_c, 2, 76, 0
1, 20736, Note_on_c, 0, 69, 64
1, 20736, Note_on_c, 1, 45, 64
1, 20736, Note_on_c, 2, 72, 64
1, 20828, Note_on_c, 1, 45, 0
1, 20832, Note_on_c, 1, 57, 64
1, 20924, Note_on_c, 0, 57, 0
1, 20924, Note_on_c, 1, 69, 0
1, 20924, Note_on_c, 2, 72, 0
1, 20928, Note_on_c, 0, 69, 64
1, 20928, Note_on_c, 1, 45, 64
1, 20928, Note_on_c, 2, 64, 64
1, 21020, Note_on_c, 1, 45, 0
1, 21024, Note_on_c, 1, 57, 64
1, 21116, Note_on_c, 0, 57, 0
1, 21116, Note_on_c, 1, 64, 0
1, 21116, Note_on_c, 2, 69, 0
1, 21120, Note_on_c, 0, 69, 64
1, 21120, Note_on_c, 1, 45, 64
1, 21120, Note_on_c, 2, 64, 64
1, 21212, Note_on_c, 1, 45, 0
1, 21216, Note_on_c, 1, 57, 64
1, 21308, Note_on_c, 1, 57, 0
1, 21312, Note_on_c, 1, 45, 64
1, 21312, Note_on_c, 3, 47, 64
1, 21404, Note_on_c, 0, 45, 0
1, 21404, Note_on_c, 3, 47, 0
1, 21408, Note_on_c, 0, 57, 64
1, 21408, Note_on_c, 3, 48, 64
1, 21500, Note_on_c, 0, 48, 0
1, 21500, Note_on_c, 1, 69, 0
1, 21500, Note_on_c, 2, 64, 0
1, 21500, Note_on_c, 3, 57, 0
1, 21504, Note_on_c, 0, 38, 64
1, 21504, Note_on_c, 1, 50, 64
1, 21596, Note_on_c, 0, 38, 0
1, 21596, Note_on_c, 1, 50, 0
1, 21600, Note_on_c, 0, 69, 64
1, 21600, Note_on_c, 1, 74, 64
1, 21600, Note_on_c, 2, 50, 64
1, 21692, Note_on_c, 2, 50, 0
1, 21696, Note_on_c, 2, 38, 64
1, 21788, Note_on_c, 0, 69, 0
1, 21788, Note_on_c, 1, 38, 0
1, 21788, Note_on_c, 2, 74, 0
1, 21792, Note_on_c, 0, 77, 64
1, 21792, Note_on_c, 1, 74, 64
1, 21792, Note_on_c, 2, 50, 64
1, 21884, Note_on_c, 0, 77, 0
1, 21884, Note_on_c, 1, 74, 0
1, 21884, Note_on_c, 2, 50, 0
1, 21888, Note_on_c, 0, 77, 64
1, 21888, Note_on_c, 1, 81, 64
1, 21888, Note_on_c, 2, 38, 64
1, 21980, Note_on_c, 2, 38, 0
1, 21984, Note_on_c, 2, 50, 64
1, 22076, Note_on_c, 0, 50, 0
1, 22076, Note_on_c, 1, 81, 0
1, 22076, Note_on_c, 2, 77, 0
1, 22080, Note_on_c, 0, 79, 64
1, 22080, Note_on_c, 1, 38, 64
1, 22080, Note_on_c, 2, 76, 64
1, 22172, Note_on_c, 0, 76, 0
1, 22172, Note_on_c, 1, 79, 0
1, 22172, Note_on_c, 2, 38, 0
1, 22176, Note_on_c, 0, 50, 64
1, 22176, Note_on_c, 1, 74, 64
1, 22176, Note_on_c, 2, 77, 64
1, 22268, Note_on_c, 0, 50, 0
1, 22268, Note_on_c, 1, 77, 0
1, 22268, Note_on_c, 2, 74, 0
1, 22272, Note_on_c, 0, 72, 64
1, 22272, Note_on_c, 1, 45, 64
1, 22272, Note_on_c, 2, 76, 64
1, 22364, Note_on_c, 1, 45, 0
1, 22368, Note_on_c, 1, 57, 64
1, 22460, Note_on_c, 1, 57, 0
1, 22464, Note_on_c, 1, 45, 64
1, 22556, Note_on_c, 0, 76, 0
1, 22556, Note_on_c, 1, 72, 0
1, 22556, Note_on_c, 2, 45, 0
1, 22560, Note_on_c, 0, 69, 64
1, 22560, Note_on_c, 1, 57, 64
1, 22560, Note_on_c, 2, 72, 64
1, 22652, Note_on_c, 0, 69, 0
1, 22652, Note_on_c, 1, 72, 0
1, 22652, Note_on_c, 2, 57, 0
1, 22656, Note_on_c, 0, 45, 64
1, 22656, Note_on_c, 1, 76, 64
1, 22656, Note_on_c, 2, 69, 64
1, 22748, Note_on_c, 0, 45, 0
1, 22752, Note_on_c, 0, 57, 64
1, 22844, Note_on_c, 0, 69, 0
1, 22844, Note_on_c, 1, 76, 0
1, 22844, Note_on_c, 2, 57, 0
1, 22848, Note_on_c, 0, 71, 64
1, 22848, Note_on_c, 1, 74, 64
1, 22848, Note_on_c, 2, 45, 64
1, 22940, Note_on_c, 0, 71, 0
1, 22940, Note_on_c, 1, 45, 0
1, 22940, Note_on_c, 2, 74, 0
1, 22944, Note_on_c, 0, 72, 64
1, 22944, Note_on_c, 1, 57, 64
1, 22944, Note_on_c, 2, 69, 64
1, 23036, Note_on_c, 0, 72, 0
1, 23036, Note_on_c, 1, 57, 0
1, 23036, Note_on_c, 2, 69, 0
1, 23040, Note_on_c, 0, 68, 64
1, 23040, Note_on_c, 1, 44, 64
1, 23040, Note_on_c, 2, 71, 64
1, 23132, Note_on_c, 1, 44, 0
1, 23136, Note_on_c, 1, 56, 61
1, 23228, Note_on_c, 0, 68, 0
1, 23228, Note_on_c, 1, 56, 0
1, 23228, Note_on_c, 2, 71, 0
1, 23232, Note_on_c, 0, 44, 58
1, 23232, Note_on_c, 1, 68, 58
1, 23232, Note_on_c, 2, 71, 58
1, 23324, Note_on_c, 0, 71, 0
1, 23324, Note_on_c, 1, 44, 0
1, 23324, Note_on_c, 2, 68, 0
1, 23328, Note_on_c, 0, 69, 55
1, 23328, Note_on_c, 1, 72, 55
1, 23328, Note_on_c, 2, 56, 55
1, 23420, Note_on_c, 0, 56, 0
1, 23420, Note_on_c, 1, 69, 0
1, 23420, Note_on_c, 2, 72, 0
1, 23424, Note_on_c, 0, 71, 51
1, 23424, Note_on_c, 1, 74, 51
1, 23424, Note_on_c, 2, 40, 51
1, 23516, Note_on_c, 2, 40, 0
1, 23520, Note_on_c, 2, 52, 48
1, 23612, Note_on_c, 0, 71, 0
1, 23612, Note_on_c, 1, 52, 0
1, 23612, Note_on_c, 2, 74, 0
1, 23616, Note_on_c, 0, 76, 45
1, 23616, Note_on_c, 1, 40, 45
1, 23616, Note_on_c, 2, 71, 45
1, 23708, Note_on_c, 1, 40, 0
1, 23712, Note_on_c, 1, 52, 42
1, 23804, Note_on_c, 0, 71, 0
1, 23804, Note_on_c, 1, 76, 0
1, 23804, Note_on_c, 2, 52, 0
1, 23808, Note_on_c, 0, 72, 38
1, 23808, Note_on_c, 1, 45, 38
1, 23808, Note_on_c, 2, 69, 38
1, 23900, Note_on_c, 1, 45, 0
1, 23904, Note_on_c, 1, 57, 35
1, 23996, Note_on_c, 0, 72, 0
1, 23996, Note_on_c, 1, 57, 0
1, 23996, Note_on_c, 2, 69, 0
1, 24000, Note_on_c, 0, 45, 32
1, 24000, Note_on_c, 1, 64, 32
1, 24000, Note_on_c, 2, 69, 32
1, 24092, Note_on_c, 0, 45, 0
1, 24096, Note_on_c, 0, 57, 29
1, 24188, Note_on_c, 0, 69, 0
1, 24188, Note_on_c, 1, 64, 0
1, 24188, Note_on_c, 2, 57, 0
1, 24192, Note_on_c, 0, 45, 25
1, 24192, Note_on_c, 1, 69, 25
1, 24192, Note_on_c, 2, 64, 25
1, 24284, Note_on_c, 0, 45, 0
1, 24288, Note_on_c, 0, 57, 22
1, 24380, Note_on_c, 0, 57, 0
1, 24384, Note_on_c, 0, 45, 19
1, 24476, Note_on_c, 0, 45, 0
1, 24480, Note_on_c, 0, 57, 16
1, 24572, Note_on_c, 0, 69, 0
1, 24572, Note_on_c, 1, 57, 0
1, 24572, Note_on_c, 2, 64, 0
1, 24572, End_track
0, 0, End_of_file
